<?xml version="1.0" encoding="UTF-8"?>
<svg version="1.1" xmlns="http://www.w3.org/2000/svg" width="1091" height="960">
<path d="M0 0 C21.84979606 -0.0301353 43.69958097 -0.0545311 65.54939433 -0.06729457 C70.52597568 -0.07042135 75.50255025 -0.07597985 80.47912788 -0.08274269 C86.83081123 -0.09133571 93.18248295 -0.09482912 99.5341723 -0.0943234 C101.74482592 -0.09488738 103.95547995 -0.09708084 106.16612983 -0.10118747 C137.85919501 -0.15705027 137.85919501 -0.15705027 149.57465363 3.20534515 C150.37234161 3.42746674 151.1700296 3.64958832 151.99188995 3.87844086 C180.59569069 12.08643837 204.78449378 29.67526985 219.82465363 55.70534515 C229.78743374 73.71964287 234.24144724 93.69359045 234.20608139 114.18856335 C234.20916034 115.85433189 234.20916034 115.85433189 234.21230149 117.55375233 C234.21796623 121.28346821 234.21651488 125.0131471 234.21509552 128.74286652 C234.21767947 131.44067485 234.220654 134.13848021 234.22409892 136.83628732 C234.23166733 143.47881385 234.23387139 150.12133233 234.23442798 156.76386272 C234.23534279 164.72162835 234.24201389 172.67938657 234.2487748 180.63714901 C234.26482659 199.87174575 234.27073752 219.1063417 234.27552355 238.34094394 C234.2778607 247.44462045 234.28146353 256.54829634 234.28521893 265.65197236 C234.29805481 296.82870668 234.30877309 328.00544064 234.31222153 359.18217754 C234.31244316 361.13893432 234.31266494 363.0956911 234.31288688 365.05244787 C234.31310752 367.01387862 234.313328 368.97530936 234.31354833 370.9367401 C234.31399087 374.87157134 234.31443799 378.80640258 234.314888 382.74123383 C234.31499739 383.7168416 234.31510678 384.69244938 234.31521949 385.69762103 C234.31884817 417.31456883 234.33476089 448.93149367 234.35807836 480.54843268 C234.3826984 513.99286667 234.39639541 547.43728754 234.39758945 580.88173085 C234.39776089 584.55633215 234.39797632 588.23093345 234.39822388 591.90553474 C234.39827965 592.81029357 234.39833541 593.7150524 234.39839287 594.64722817 C234.39954154 609.18152249 234.41054805 623.71579319 234.42511093 638.25007955 C234.43950837 652.87266298 234.44269466 667.49521627 234.43467095 682.11780485 C234.43022969 690.79398086 234.43401476 699.47005925 234.44990946 708.14622234 C234.45971483 713.95603616 234.45842866 719.76578216 234.44847323 725.57559547 C234.44312077 728.87662782 234.44393727 732.17732342 234.45498195 735.47836342 C234.57949112 775.23144748 227.45789533 806.91604037 199.07465363 836.01784515 C180.55466818 854.5972848 155.21835652 866.06752334 128.90567416 866.15656206 C127.86448485 866.15507844 126.82329554 866.15359481 125.75055504 866.15206623 C124.05991028 866.15559458 124.05991028 866.15559458 122.33511108 866.1591942 C118.54897193 866.1658643 114.76286725 866.16542658 110.97672272 866.16501617 C108.23837896 866.16776929 105.50003792 866.17200431 102.76169598 866.17615765 C96.01887566 866.1854682 89.27606191 866.1894031 82.53323597 866.19167662 C74.45538042 866.19464278 66.37753355 866.2033427 58.29968257 866.2120909 C38.77436525 866.23292088 19.24904642 866.24340338 -0.27627942 866.25222051 C-9.51781515 866.25642965 -18.75935023 866.26165132 -28.00088542 866.26690504 C-59.65038241 866.28479523 -91.29987959 866.2997896 -122.94938087 866.30722523 C-124.93585942 866.30769998 -126.92233796 866.30817587 -128.90881651 866.30865289 C-130.38645582 866.30900745 -130.38645582 866.30900745 -131.89394643 866.30936918 C-136.88471907 866.31057035 -141.87549171 866.31178581 -146.86626434 866.31301117 C-147.85668979 866.31325132 -148.84711523 866.31349147 -149.86755357 866.3137389 C-181.96253682 866.32162769 -214.05748307 866.34505086 -246.15245017 866.37756711 C-280.10323945 866.41190058 -314.0540071 866.43157968 -348.00481403 866.43486947 C-351.73532225 866.43528699 -355.46583045 866.43576655 -359.19633865 866.43629265 C-360.57412302 866.43647744 -360.57412302 866.43647744 -361.97974141 866.43666596 C-376.73328782 866.43899374 -391.48679111 866.4546302 -406.24032217 866.47513449 C-421.08472906 866.49543694 -435.9290844 866.50084897 -450.7735026 866.49136386 C-459.58058251 866.48616587 -468.38749026 866.49194541 -477.19454523 866.51389853 C-483.09288898 866.52748352 -488.99111525 866.52626231 -494.88946038 866.51349657 C-498.24031117 866.50665044 -501.59057106 866.50801974 -504.94143321 866.52305666 C-539.77652701 866.66959898 -569.75804727 860.03547171 -595.92534637 836.01784515 C-597.25372528 834.83061859 -597.25372528 834.83061859 -598.60894012 833.61940765 C-622.28693593 811.38203874 -630.16741068 779.00905761 -631.20034289 747.58443201 C-631.34358148 740.60932174 -631.32619975 733.63520337 -631.3062973 726.65900421 C-631.30976216 723.97895069 -631.31441095 721.29892234 -631.32047904 718.6188758 C-631.3312126 712.83700817 -631.33104886 707.05522487 -631.32333755 701.27335358 C-631.31190177 692.67520099 -631.31783659 684.07711841 -631.32696248 675.47896616 C-631.34269336 660.11635829 -631.34141736 644.75378804 -631.33272574 629.39117667 C-631.32515891 615.9496747 -631.32321835 602.50818647 -631.32679367 589.06668282 C-631.32702283 588.17273722 -631.32725198 587.27879163 -631.32748808 586.35775678 C-631.32842219 582.72838005 -631.3293774 579.09900333 -631.33036737 575.46962662 C-631.33952906 541.47584367 -631.33124761 507.48208459 -631.31507668 473.48830533 C-631.30083543 443.32162549 -631.30212065 413.15498365 -631.31645966 382.98830414 C-631.33253941 349.04646132 -631.33888524 315.10463955 -631.32962286 281.16279346 C-631.32866079 277.54183853 -631.32772227 273.9208836 -631.32679367 270.29992867 C-631.32655644 269.4084442 -631.32631921 268.51695973 -631.32607479 267.59846059 C-631.32266952 254.16567058 -631.32663969 240.73289585 -631.33423233 227.30010796 C-631.34282486 212.02273238 -631.3406339 196.74540009 -631.3243901 181.46802988 C-631.31560931 172.92910679 -631.31496548 164.39027752 -631.32632862 155.85135695 C-631.3330924 150.13614305 -631.32880353 144.42100384 -631.31581431 138.70580095 C-631.30873007 135.45748106 -631.30780896 132.20938127 -631.31703226 128.96106144 C-631.36256738 111.58358185 -631.1342158 94.04048187 -625.05034637 77.51784515 C-624.79205048 76.78066254 -624.53375458 76.04347992 -624.26763153 75.28395844 C-622.15431742 69.36693839 -619.69272905 63.65830915 -616.92534637 58.01784515 C-616.65722137 57.37460297 -616.38909637 56.73136078 -616.11284637 56.0686264 C-606.34396113 33.66594245 -582.93597504 16.11674751 -560.92534637 7.01784515 C-550.48100003 3.09204007 -540.41618473 0.86462327 -529.25036907 0.87917995 C-528.39724029 0.87633774 -527.54411151 0.87349552 -526.66513035 0.87056717 C-523.80379504 0.86224015 -520.94250035 0.86095334 -518.08115387 0.85962677 C-516.00794292 0.85505921 -513.93473289 0.8500589 -511.86152393 0.8446632 C-506.15793992 0.83107931 -500.45436187 0.8236619 -494.75076592 0.81723654 C-488.59344736 0.80922679 -482.43614116 0.79552464 -476.27883148 0.78252411 C-465.5776855 0.76072383 -454.87653893 0.74254685 -444.17538261 0.72691917 C-432.86330658 0.71039006 -421.55123664 0.69188348 -410.23916817 0.6707859 C-409.5318445 0.6694683 -408.82452083 0.66815069 -408.09576311 0.66679316 C-405.22220584 0.66143367 -402.3486486 0.65605949 -399.4750914 0.65066626 C-373.2079464 0.60136805 -346.94079559 0.55678139 -320.67363739 0.51515961 C-296.2009755 0.47637684 -271.72832029 0.43495275 -247.25566864 0.39015961 C-245.75121486 0.38740935 -244.24676107 0.38465945 -242.74230729 0.38190989 C-236.74539356 0.37094711 -230.74847985 0.3599726 -224.75156616 0.34898754 C-157.62933816 0.22609325 -90.5070967 0.11986039 -23.38481381 0.03168809 C-15.58987543 0.0214333 -7.79493762 0.01081647 0 0 Z " fill="#1C3825" transform="translate(722.9253463745117,16.982154846191406)"/>
<path d="M0 0 C30.36 0 60.72 0 92 0 C92 29.7 92 59.4 92 90 C83.09 90 74.18 90 65 90 C65 76.14 65 62.28 65 48 C60.62994294 51.49604564 58.95337209 53.55587818 56 58 C54.09196302 59.86766948 52.19915585 61.63162828 50.1875 63.375 C46.10032832 67.01514688 42.36983613 70.70947474 38.8359375 74.8984375 C33.15490167 81.40141043 27.07156533 87.40434667 20.03515625 92.41796875 C14.47684126 96.73873184 9.48849059 101.86844741 5.40087891 107.5925293 C1.69887066 112.55641116 -2.54826705 116.89026715 -6.90625 121.27734375 C-7.74917603 122.12929825 -8.59210205 122.98125275 -9.46057129 123.85902405 C-11.23288645 125.64576803 -13.0079581 127.42978161 -14.78564453 129.21118164 C-17.50403901 131.94155681 -20.2032049 134.69005783 -22.90234375 137.43945312 C-24.63166253 139.17822781 -26.36209321 140.91589749 -28.09375 142.65234375 C-28.89703735 143.47516342 -29.70032471 144.29798309 -30.5279541 145.14573669 C-31.66943909 146.27810509 -31.66943909 146.27810509 -32.83398438 147.43334961 C-33.49539429 148.09983017 -34.1568042 148.76631073 -34.83825684 149.45298767 C-37.6496443 151.46490618 -39.54655719 151.94569128 -43 152 C-45.33920288 150.55970764 -45.33920288 150.55970764 -47.60302734 148.32836914 C-48.89838409 147.07529465 -48.89838409 147.07529465 -50.21990967 145.79690552 C-51.59605438 144.41243729 -51.59605438 144.41243729 -53 143 C-53.96166408 142.05633289 -54.924682 141.11404365 -55.88897705 140.17306519 C-59.06891312 137.0562291 -62.21068743 133.90220782 -65.3515625 130.74609375 C-66.50290225 129.59288364 -67.65446689 128.43989803 -68.8062439 127.28712463 C-71.8036875 124.28590447 -74.79811313 121.28169145 -77.79187012 118.27679443 C-80.86069317 115.19765137 -83.93243026 112.12141821 -87.00390625 109.04492188 C-93.00542222 103.03275459 -99.00374561 97.01741493 -105 91 C-105.73605469 91.73605469 -106.47210938 92.47210938 -107.23046875 93.23046875 C-113.10546875 99.10546875 -113.10546875 99.10546875 -114.56259727 100.56253529 C-115.96193111 101.96192946 -117.36104975 103.36153882 -118.76016235 104.76115417 C-120.52992146 106.53012961 -122.30466446 108.29343215 -124.0859375 110.05078125 C-131.13033376 116.98161111 -131.13033376 116.98161111 -137.75 124.3125 C-140.79959954 127.91314104 -144.23157589 130.90415059 -147.796875 133.984375 C-150.60180227 136.55058506 -153.00292339 139.36584511 -155.453125 142.265625 C-157.4200361 144.47094957 -159.69490103 146.15592083 -162 148 C-162.95261283 149.06778749 -163.88469074 150.15398573 -164.8046875 151.25 C-169.88774044 157.11526505 -175.33022569 162.62614498 -180.7890625 168.13916016 C-182.02195917 169.38877963 -183.249443 170.64376078 -184.47167969 171.90380859 C-186.25303126 173.73973007 -188.05010783 175.55882658 -189.8515625 177.375 C-190.39438873 177.94049561 -190.93721497 178.50599121 -191.49649048 179.08862305 C-193.85264674 181.43180544 -195.40033779 182.89974356 -198.73071289 183.45654297 C-201.90788404 182.81734877 -203.45881109 181.31865368 -205.8125 179.125 C-206.60269531 178.40570312 -207.39289063 177.68640625 -208.20703125 176.9453125 C-210 175 -210 175 -210 173 C-210.598125 172.731875 -211.19625 172.46375 -211.8125 172.1875 C-214.1097636 170.94041405 -215.52829405 170.16882981 -217 168 C-217 165.0625 -217 165.0625 -216 162 C-213.875 160.125 -213.875 160.125 -211 158 C-210.00509717 156.90488479 -209.03816739 155.78412726 -208.08984375 154.6484375 C-203.41868188 149.23307741 -198.38257268 144.19650973 -193.32788086 139.14257812 C-191.66816402 137.48063812 -190.01665543 135.8108039 -188.36523438 134.140625 C-187.31038386 133.08284643 -186.2550629 132.02553675 -185.19921875 130.96875 C-184.46018562 130.2189386 -184.46018562 130.2189386 -183.70622253 129.45397949 C-180.22887123 126 -180.22887123 126 -178 126 C-177.505 124.515 -177.505 124.515 -177 123 C-176.2575 122.4225 -175.515 121.845 -174.75 121.25 C-172.41104603 119.33631039 -171.29129863 118.11766266 -169.6875 115.6875 C-167.86457428 113.00537036 -165.98176692 110.99402821 -163.4921875 108.921875 C-158.2158607 104.3927025 -153.34169906 99.48770206 -148.4375 94.5625 C-147.53064453 93.65951172 -146.62378906 92.75652344 -145.68945312 91.82617188 C-141.1249117 87.25501038 -136.70290712 82.62771816 -132.49487305 77.72631836 C-130.47779309 75.39694185 -128.35641597 73.18790823 -126.1875 71 C-125.43855469 70.236875 -124.68960938 69.47375 -123.91796875 68.6875 C-122 67 -122 67 -120 67 C-119.73960937 66.40058594 -119.47921875 65.80117188 -119.2109375 65.18359375 C-117.91715749 62.85061626 -116.70531236 61.70222219 -114.625 60.0625 C-111.65871694 57.6287855 -109.28379912 55.1059668 -107 52 C-100.14976153 53.05388284 -95.20040888 58.50021136 -90.53515625 63.19921875 C-89.93875839 63.79370316 -89.34236053 64.38818756 -88.72789001 65.00068665 C-87.4724661 66.25475586 -86.21953904 67.5113291 -84.96899414 68.77026367 C-83.07848573 70.67142419 -81.17761986 72.56174729 -79.27539062 74.45117188 C-73.59402977 80.12692847 -68.12990126 85.74610332 -63.3449707 92.21850586 C-61.61340925 94.51206257 -59.65626126 96.47434373 -57.5625 98.4375 C-56.33841789 99.58725454 -55.13921198 100.76610027 -54 102 C-54 102.66 -54 103.32 -54 104 C-53.41734375 104.24492187 -52.8346875 104.48984375 -52.234375 104.7421875 C-49.63697764 106.20435874 -48.16024169 107.84740414 -46.25 110.125 C-45.63640625 110.84945312 -45.0228125 111.57390625 -44.390625 112.3203125 C-43.93171875 112.87460937 -43.4728125 113.42890625 -43 114 C-38.93483025 113.48571039 -37.0240095 112.51167298 -34.1875 109.578125 C-33.16269531 108.53398437 -33.16269531 108.53398437 -32.1171875 107.46875 C-31.41851563 106.7365625 -30.71984375 106.004375 -30 105.25 C-28.95199219 104.17492187 -28.95199219 104.17492187 -27.8828125 103.078125 C-26.51741085 101.67665613 -25.15566501 100.27161492 -23.79785156 98.86279297 C-20.93655748 95.89814416 -18.01473821 92.99722496 -15.07617188 90.109375 C-4.25468886 79.70035301 -4.25468886 79.70035301 5.5625 68.375 C11.28373019 61.01421887 18.38156116 54.90867056 25.24169922 48.63476562 C26.40031549 47.55755172 27.52390597 46.44120944 28.60595703 45.28710938 C30 44 30 44 32 44 C32 43.34 32 42.68 32 42 C33.14643021 40.81985125 34.29960547 39.64539906 35.48828125 38.5078125 C38.17103253 35.83199339 40.5667581 32.90149463 43 30 C40.34303242 29.11434414 38.71809917 28.8549738 35.98754883 28.79467773 C35.18694534 28.77473251 34.38634186 28.75478729 33.56147766 28.73423767 C32.70201035 28.71752518 31.84254303 28.70081268 30.95703125 28.68359375 C30.0734343 28.66281265 29.18983734 28.64203156 28.27946472 28.62062073 C25.45722215 28.55524246 22.63488665 28.49629472 19.8125 28.4375 C17.89907894 28.39430363 15.98566727 28.35068898 14.07226562 28.30664062 C9.38160428 28.19878594 4.69087227 28.09962539 0 28 C0 18.76 0 9.52 0 0 Z " fill="#0BBD51" transform="translate(588,357)"/>
<path d="M0 0 C1.14069618 -0.00235223 2.28139236 -0.00470446 3.45665509 -0.00712797 C7.28284817 -0.01379036 11.10900708 -0.01336059 14.93520546 -0.01294994 C17.70445262 -0.01570388 20.47369709 -0.0199386 23.24294245 -0.02409142 C30.05769525 -0.03339635 36.87244155 -0.03733588 43.6871999 -0.03961039 C51.85104204 -0.04257772 60.01487561 -0.05127787 68.17871324 -0.06002467 C87.9023845 -0.08084203 107.62605722 -0.09133226 127.3497369 -0.10015428 C136.67692213 -0.10436227 146.00410671 -0.10958386 155.33129139 -0.11483881 C187.25169746 -0.13272135 219.17210371 -0.14772042 251.09251404 -0.155159 C253.09527037 -0.15563375 255.0980267 -0.15610964 257.10078303 -0.15658666 C258.09396699 -0.15682303 259.08715095 -0.15705941 260.1104314 -0.15730295 C265.14240565 -0.15850415 270.1743799 -0.1597196 275.20635414 -0.16094494 C276.70426367 -0.16130516 276.70426367 -0.16130516 278.23243399 -0.16167267 C310.64754701 -0.16957476 343.06262355 -0.19302924 375.47772063 -0.22550088 C409.74148132 -0.25976191 444.00522064 -0.27950635 478.26899874 -0.28280324 C482.02639303 -0.28322079 485.7837873 -0.28370036 489.54118156 -0.28422642 C490.46637161 -0.28434961 491.39156166 -0.2844728 492.34478778 -0.28459973 C507.25917305 -0.28693564 522.17351602 -0.30261651 537.08788619 -0.32306826 C552.06066609 -0.34327548 567.03339493 -0.34882772 582.00618593 -0.33929763 C590.91057992 -0.33406379 599.81480448 -0.3400486 608.71917423 -0.3618323 C614.65809901 -0.37526879 620.59690625 -0.37432731 626.53583201 -0.36143034 C629.92535188 -0.35448589 633.31454621 -0.35402512 636.70403795 -0.37099043 C640.34621421 -0.38590692 643.98751655 -0.37657757 647.62966919 -0.36076355 C648.69412697 -0.37098576 649.75858474 -0.38120796 650.85529882 -0.39173993 C652.30253688 -0.37787184 652.30253688 -0.37787184 653.77901208 -0.36372358 C655.0293739 -0.36432385 655.0293739 -0.36432385 656.30499556 -0.36493625 C658.43731117 0.13422108 658.43731117 0.13422108 660.22845487 2.16534262 C660.62737745 2.81507251 661.02630003 3.4648024 661.43731117 4.13422108 C659.84806085 5.7234714 658.21985587 5.26027062 656.01507699 5.2613796 C655.0519833 5.26429163 654.08888961 5.26720367 653.09661126 5.27020395 C652.02380151 5.26832374 650.95099175 5.26644353 649.84567261 5.26450634 C648.71273722 5.26644977 647.57980183 5.2683932 646.41253507 5.27039552 C643.23967168 5.27482471 640.06684378 5.27472854 636.893979 5.27282239 C633.45258945 5.2718535 630.01120752 5.27667357 626.569821 5.28080142 C620.5286552 5.28725388 614.48749632 5.29001906 608.44632721 5.29042721 C599.46242875 5.29107034 590.47854097 5.29745221 581.49464613 5.30517401 C567.30916166 5.3172695 553.12367767 5.32592126 538.93818952 5.33221215 C516.41004185 5.34223556 493.88190937 5.36148465 471.35377081 5.38375454 C462.69021469 5.39228626 454.0266583 5.40055219 445.36310196 5.4088583 C443.91911734 5.41024581 443.91911734 5.41024581 442.44596131 5.41166136 C419.5137175 5.43366782 396.581472 5.45345003 373.64922523 5.4721117 C372.14354794 5.47334122 372.14354794 5.47334122 370.60745293 5.47459558 C347.20037837 5.49367043 323.7933039 5.5106325 300.38622475 5.52295399 C299.38035306 5.52348365 298.37448138 5.52401332 297.33812874 5.52455904 C289.23104883 5.52881038 281.12396888 5.53298682 273.01688893 5.53714384 C239.58176262 5.55434709 206.146657 5.5815681 172.71154845 5.62030422 C167.98770639 5.62576602 163.2638642 5.63109902 158.5400219 5.63634586 C157.14546825 5.63789743 157.14546825 5.63789743 155.72274181 5.63948035 C140.76567178 5.65579862 125.80861625 5.66133369 110.85153817 5.66264352 C95.81035627 5.66414916 80.76921369 5.67632225 65.72804914 5.69939993 C56.79515289 5.71276637 47.86234254 5.71780654 38.92943851 5.71085357 C32.95589604 5.70702376 26.98242946 5.71409592 21.00890678 5.72986935 C17.60933154 5.73853574 14.21007653 5.7409332 10.8104773 5.73329549 C-8.57462804 5.6686658 -8.57462804 5.6686658 -27.56268883 9.13422108 C-28.32126297 9.33144587 -29.07983711 9.52867066 -29.86139834 9.73187196 C-55.91499321 16.9671682 -76.93404745 33.81063541 -90.65057945 56.97113514 C-94.56150868 64.06403341 -97.20571667 71.53495244 -99.37518883 79.32172108 C-99.57032066 80.00202381 -99.7654525 80.68232655 -99.96649742 81.38324451 C-104.17686746 97.8902734 -103.85475369 115.45155258 -103.82097435 132.35455799 C-103.82383562 134.63348496 -103.82757719 136.91241095 -103.83211285 139.1913352 C-103.84201263 145.39790734 -103.83974229 151.60442243 -103.83538592 157.81099868 C-103.83315137 163.83388633 -103.840354 169.85675811 -103.84738922 175.87964025 C-103.8615032 188.1861358 -103.86690086 200.49261987 -103.86764908 212.79912281 C-103.8688312 229.59685415 -103.88406562 246.39455299 -103.90314425 263.19227248 C-103.91203943 271.0300306 -103.92031007 278.86778937 -103.92846584 286.70554829 C-103.9292836 287.48987965 -103.93010135 288.27421101 -103.93094388 289.08230999 C-103.95024691 307.7153333 -103.96381087 326.34835989 -103.97601891 344.98138905 C-103.9768241 346.20312086 -103.9768241 346.20312086 -103.97764555 347.44953413 C-103.99015622 366.47628523 -104.00093819 385.50303673 -104.00971031 404.52978992 C-104.01278097 411.14419016 -104.01587312 417.75859039 -104.01898766 424.37299061 C-104.01936947 425.18946453 -104.01975128 426.00593845 -104.02014467 426.847154 C-104.02890454 445.48196913 -104.04004933 464.1167773 -104.06011868 482.75158405 C-104.06096134 483.53422315 -104.061804 484.31686225 -104.0626722 485.12321768 C-104.0711537 492.93498599 -104.08014852 500.74675355 -104.08986398 508.55852041 C-104.0946254 512.40086705 -104.09924085 516.24321386 -104.10375214 520.0855608 C-104.10464002 520.84171071 -104.1055279 521.59786063 -104.10644268 522.37692418 C-104.12038394 534.55585419 -104.12301354 546.73476194 -104.12107248 558.91369873 C-104.11928084 571.13505078 -104.12789018 583.35635786 -104.14738088 595.57769489 C-104.15762262 602.20097072 -104.16251975 608.82417651 -104.15461349 615.44746304 C-104.14747072 621.50275825 -104.15393535 627.55787633 -104.1714989 633.61314887 C-104.17540282 635.81045122 -104.17416827 638.00776955 -104.16744202 640.20506507 C-104.15905802 643.17824706 -104.16889619 646.15081508 -104.1835146 649.12395954 C-104.1766662 649.98852018 -104.16981781 650.85308083 -104.1627619 651.74384028 C-104.1971661 655.29437661 -104.23849617 657.54013189 -105.96138722 660.69736242 C-107.56268883 662.13422108 -107.56268883 662.13422108 -109.56268883 662.13422108 C-109.63119648 608.82306061 -109.69487448 555.51189614 -109.73206139 502.20070362 C-109.73261361 501.41105421 -109.73316584 500.62140479 -109.73373481 499.80782661 C-109.74570783 482.64456043 -109.75678835 465.48129378 -109.76695015 448.31802643 C-109.77193927 439.90055671 -109.77712552 431.48308711 -109.78241539 423.06561756 C-109.78293843 422.22800039 -109.78346146 421.39038322 -109.78400035 420.52738371 C-109.80103057 393.40215474 -109.83106446 366.2769592 -109.86787771 339.15175047 C-109.90565491 311.26547502 -109.93024145 283.37921807 -109.93834879 255.49291747 C-109.93950132 251.54967044 -109.94080387 247.60642348 -109.9421978 243.66317654 C-109.94246749 242.887127 -109.94273718 242.11107747 -109.94301505 241.31151129 C-109.94773276 228.84431481 -109.96626017 216.37717569 -109.99001696 203.91000256 C-110.01363242 191.36109819 -110.02254416 178.81225038 -110.01669434 166.26332458 C-110.01392919 159.47018338 -110.01801216 152.67721965 -110.03951073 145.88410664 C-110.05907927 139.65511701 -110.0598921 133.42640661 -110.04628441 127.19740371 C-110.04460437 124.95346786 -110.04959056 122.70951407 -110.06222156 120.46561315 C-110.21068702 92.44301075 -104.09848363 62.1520722 -85.56268883 40.13422108 C-84.85241539 39.28601795 -84.14214195 38.43781483 -83.41034508 37.56390858 C-61.6189075 12.51715959 -33.0740563 -0.04671454 0 0 Z " fill="#2A4E34" transform="translate(203.56268882751465,18.865778923034668)"/>
<path d="M0 0 C30.36 0 60.72 0 92 0 C92 29.7 92 59.4 92 90 C83.09 90 74.18 90 65 90 C65 76.14 65 62.28 65 48 C60.62994294 51.49604564 58.95337209 53.55587818 56 58 C54.09196302 59.86766948 52.19915585 61.63162828 50.1875 63.375 C46.10032832 67.01514688 42.36983613 70.70947474 38.8359375 74.8984375 C33.15490167 81.40141043 27.07156533 87.40434667 20.03515625 92.41796875 C14.47684126 96.73873184 9.48849059 101.86844741 5.40087891 107.5925293 C1.69887066 112.55641116 -2.54826705 116.89026715 -6.90625 121.27734375 C-7.74917603 122.12929825 -8.59210205 122.98125275 -9.46057129 123.85902405 C-11.23288645 125.64576803 -13.0079581 127.42978161 -14.78564453 129.21118164 C-17.50403901 131.94155681 -20.2032049 134.69005783 -22.90234375 137.43945312 C-24.63166253 139.17822781 -26.36209321 140.91589749 -28.09375 142.65234375 C-28.89703735 143.47516342 -29.70032471 144.29798309 -30.5279541 145.14573669 C-31.66943909 146.27810509 -31.66943909 146.27810509 -32.83398438 147.43334961 C-33.49539429 148.09983017 -34.1568042 148.76631073 -34.83825684 149.45298767 C-37.6496443 151.46490618 -39.54655719 151.94569128 -43 152 C-45.33920288 150.55970764 -45.33920288 150.55970764 -47.60302734 148.32836914 C-48.89838409 147.07529465 -48.89838409 147.07529465 -50.21990967 145.79690552 C-51.59605438 144.41243729 -51.59605438 144.41243729 -53 143 C-53.96166408 142.05633289 -54.924682 141.11404365 -55.88897705 140.17306519 C-59.06891312 137.0562291 -62.21068743 133.90220782 -65.3515625 130.74609375 C-66.50290225 129.59288364 -67.65446689 128.43989803 -68.8062439 127.28712463 C-71.8036875 124.28590447 -74.79811313 121.28169145 -77.79187012 118.27679443 C-80.86069317 115.19765137 -83.93243026 112.12141821 -87.00390625 109.04492188 C-93.00542222 103.03275459 -99.00374561 97.01741493 -105 91 C-105.73605469 91.73605469 -106.47210938 92.47210938 -107.23046875 93.23046875 C-113.10546875 99.10546875 -113.10546875 99.10546875 -114.56259727 100.56253529 C-115.96193111 101.96192946 -117.36104975 103.36153882 -118.76016235 104.76115417 C-120.52992146 106.53012961 -122.30466446 108.29343215 -124.0859375 110.05078125 C-131.13033376 116.98161111 -131.13033376 116.98161111 -137.75 124.3125 C-140.79959954 127.91314104 -144.23157589 130.90415059 -147.796875 133.984375 C-150.60180227 136.55058506 -153.00292339 139.36584511 -155.453125 142.265625 C-157.4200361 144.47094957 -159.69490103 146.15592083 -162 148 C-162.95261283 149.06778749 -163.88469074 150.15398573 -164.8046875 151.25 C-169.88774044 157.11526505 -175.33022569 162.62614498 -180.7890625 168.13916016 C-182.02195917 169.38877963 -183.249443 170.64376078 -184.47167969 171.90380859 C-186.25303126 173.73973007 -188.05010783 175.55882658 -189.8515625 177.375 C-190.39438873 177.94049561 -190.93721497 178.50599121 -191.49649048 179.08862305 C-193.85264674 181.43180544 -195.40033779 182.89974356 -198.73071289 183.45654297 C-201.90788404 182.81734877 -203.45881109 181.31865368 -205.8125 179.125 C-206.60269531 178.40570312 -207.39289063 177.68640625 -208.20703125 176.9453125 C-210 175 -210 175 -210 173 C-210.598125 172.731875 -211.19625 172.46375 -211.8125 172.1875 C-214.1097636 170.94041405 -215.52829405 170.16882981 -217 168 C-217 165.0625 -217 165.0625 -216 162 C-213.875 160.125 -213.875 160.125 -211 158 C-210.00509717 156.90488479 -209.03816739 155.78412726 -208.08984375 154.6484375 C-203.41868188 149.23307741 -198.38257268 144.19650973 -193.32788086 139.14257812 C-191.66816402 137.48063812 -190.01665543 135.8108039 -188.36523438 134.140625 C-187.31038386 133.08284643 -186.2550629 132.02553675 -185.19921875 130.96875 C-184.46018562 130.2189386 -184.46018562 130.2189386 -183.70622253 129.45397949 C-180.22887123 126 -180.22887123 126 -178 126 C-177.505 124.515 -177.505 124.515 -177 123 C-176.2575 122.4225 -175.515 121.845 -174.75 121.25 C-172.41104603 119.33631039 -171.29129863 118.11766266 -169.6875 115.6875 C-167.86457428 113.00537036 -165.98176692 110.99402821 -163.4921875 108.921875 C-158.2158607 104.3927025 -153.34169906 99.48770206 -148.4375 94.5625 C-147.53064453 93.65951172 -146.62378906 92.75652344 -145.68945312 91.82617188 C-141.1249117 87.25501038 -136.70290712 82.62771816 -132.49487305 77.72631836 C-130.47779309 75.39694185 -128.35641597 73.18790823 -126.1875 71 C-125.43855469 70.236875 -124.68960938 69.47375 -123.91796875 68.6875 C-122 67 -122 67 -120 67 C-119.73960937 66.40058594 -119.47921875 65.80117188 -119.2109375 65.18359375 C-117.91715749 62.85061626 -116.70531236 61.70222219 -114.625 60.0625 C-111.65871694 57.6287855 -109.28379912 55.1059668 -107 52 C-100.14976153 53.05388284 -95.20040888 58.50021136 -90.53515625 63.19921875 C-89.93875839 63.79370316 -89.34236053 64.38818756 -88.72789001 65.00068665 C-87.4724661 66.25475586 -86.21953904 67.5113291 -84.96899414 68.77026367 C-83.07848573 70.67142419 -81.17761986 72.56174729 -79.27539062 74.45117188 C-73.59402977 80.12692847 -68.12990126 85.74610332 -63.3449707 92.21850586 C-61.61340925 94.51206257 -59.65626126 96.47434373 -57.5625 98.4375 C-56.33841789 99.58725454 -55.13921198 100.76610027 -54 102 C-54 102.66 -54 103.32 -54 104 C-53.41734375 104.24492187 -52.8346875 104.48984375 -52.234375 104.7421875 C-49.63697764 106.20435874 -48.16024169 107.84740414 -46.25 110.125 C-45.63640625 110.84945312 -45.0228125 111.57390625 -44.390625 112.3203125 C-43.93171875 112.87460937 -43.4728125 113.42890625 -43 114 C-38.93483025 113.48571039 -37.0240095 112.51167298 -34.1875 109.578125 C-33.16269531 108.53398437 -33.16269531 108.53398437 -32.1171875 107.46875 C-31.41851563 106.7365625 -30.71984375 106.004375 -30 105.25 C-28.95199219 104.17492187 -28.95199219 104.17492187 -27.8828125 103.078125 C-26.51741085 101.67665613 -25.15566501 100.27161492 -23.79785156 98.86279297 C-20.93655748 95.89814416 -18.01473821 92.99722496 -15.07617188 90.109375 C-4.25468886 79.70035301 -4.25468886 79.70035301 5.5625 68.375 C11.28373019 61.01421887 18.38156116 54.90867056 25.24169922 48.63476562 C26.40031549 47.55755172 27.52390597 46.44120944 28.60595703 45.28710938 C30 44 30 44 32 44 C32 43.34 32 42.68 32 42 C33.14643021 40.81985125 34.29960547 39.64539906 35.48828125 38.5078125 C38.17103253 35.83199339 40.5667581 32.90149463 43 30 C40.34303242 29.11434414 38.71809917 28.8549738 35.98754883 28.79467773 C35.18694534 28.77473251 34.38634186 28.75478729 33.56147766 28.73423767 C32.70201035 28.71752518 31.84254303 28.70081268 30.95703125 28.68359375 C30.0734343 28.66281265 29.18983734 28.64203156 28.27946472 28.62062073 C25.45722215 28.55524246 22.63488665 28.49629472 19.8125 28.4375 C17.89907894 28.39430363 15.98566727 28.35068898 14.07226562 28.30664062 C9.38160428 28.19878594 4.69087227 28.09962539 0 28 C0 18.76 0 9.52 0 0 Z M4 4 C4 10.6 4 17.2 4 24 C5.78792969 23.83628906 7.57585937 23.67257812 9.41796875 23.50390625 C17.72345428 22.86502275 25.98936473 22.88926313 34.3125 22.9375 C35.84309747 22.94253112 37.37369657 22.94709114 38.90429688 22.95117188 C42.60289911 22.96203576 46.30143864 22.97920899 50 23 C50.2109375 28.6796875 50.2109375 28.6796875 48.3125 31.5625 C45.91622721 34.08830105 43.49372963 36.57021215 41 39 C40.2575 39.804375 40.2575 39.804375 39.5 40.625 C38 42 38 42 35.71728516 43.29150391 C32.74594452 45.15973767 30.50741267 47.23367707 28.0234375 49.7109375 C26.64671875 51.08378906 26.64671875 51.08378906 25.2421875 52.484375 C24.53594238 53.1969043 24.53594238 53.1969043 23.81542969 53.92382812 C22.37910944 55.37085992 20.93242704 56.80690661 19.484375 58.2421875 C18.56914063 59.16 17.65390625 60.0778125 16.7109375 61.0234375 C15.46256104 62.27519775 15.46256104 62.27519775 14.18896484 63.55224609 C12.07705993 65.91382971 10.60928083 68.28635057 9 71 C7.36287 72.04765602 5.69329428 73.04578185 4 74 C2.35031825 75.47133778 0.74537982 76.99428599 -0.8125 78.5625 C-1.60269531 79.34753906 -2.39289063 80.13257813 -3.20703125 80.94140625 C-5.21892691 82.79637136 -5.21892691 82.79637136 -5 85 C-5.721875 85.165 -6.44375 85.33 -7.1875 85.5 C-10.19851484 87.10587458 -10.64670228 87.77593437 -12.25 90.625 C-14.81826745 95.15043588 -18.21035328 98.06296468 -22.20703125 101.3359375 C-22.79871094 101.88507813 -23.39039063 102.43421875 -24 103 C-24 103.66 -24 104.32 -24 105 C-24.70125 105.20625 -25.4025 105.4125 -26.125 105.625 C-29.80173359 107.3834378 -32.47295079 109.80428141 -35 113 C-35 113.66 -35 114.32 -35 115 C-35.99 115.33 -36.98 115.66 -38 116 C-38.33 116.66 -38.66 117.32 -39 118 C-43.13541658 117.48898743 -44.90738757 115.33866253 -47.6875 112.375 C-52.16780845 107.74952692 -56.8555206 103.84854184 -62 100 C-67.78472222 95.43055556 -67.78472222 95.43055556 -69 93 C-69.99 92.67 -70.98 92.34 -72 92 C-73.52216957 90.32675367 -74.97187505 88.58675868 -76.375 86.8125 C-77.17550781 85.81347656 -77.97601563 84.81445312 -78.80078125 83.78515625 C-80.00986087 82.25394174 -81.21741067 80.72149873 -82.41796875 79.18359375 C-85.24588781 75.64145623 -88.43616713 72.79985448 -91.8671875 69.87109375 C-101.12561175 61.74877651 -101.12561175 61.74877651 -103 58 C-105.85189276 58.3443612 -107.5572601 58.59280115 -109.703125 60.56640625 C-110.21359375 61.22511719 -110.7240625 61.88382812 -111.25 62.5625 C-113.83053924 65.72901321 -116.4779124 68.33409531 -119.625 70.9375 C-122.62432857 73.52122878 -124.52088687 75.6059157 -126.1875 79.1875 C-128.58010863 84.04059269 -132.13630156 87.31504614 -136.0625 90.9375 C-136.67697998 91.50557373 -137.29145996 92.07364746 -137.92456055 92.65893555 C-140.85774497 95.29900066 -143.46133404 97.24034042 -147 99 C-149.21009434 100.87022608 -149.21009434 100.87022608 -149.6875 103.6875 C-152.61399685 111.07342062 -158.91502453 114.72467538 -165.56640625 118.53125 C-171.01547954 121.81993629 -174.94875197 125.37927994 -178 131 C-178.99 131.495 -178.99 131.495 -180 132 C-180.4021875 133.11375 -180.4021875 133.11375 -180.8125 134.25 C-182.28802915 137.66701488 -184.21845518 139.55766796 -187 142 C-187.99 142.33 -188.98 142.66 -190 143 C-190.825 143.825 -191.65 144.65 -192.5 145.5 C-195 148 -195 148 -198 149 C-200.02409334 151.44555169 -200.02409334 151.44555169 -202 154.375 C-205.78726929 159.81202674 -205.78726929 159.81202674 -207.8125 161.6015625 C-209.22992853 162.94027144 -209.22992853 162.94027144 -208.86328125 164.92578125 C-207.88329269 167.28041438 -206.70631844 169.13805638 -205.1875 171.1875 C-204.68605469 171.88230469 -204.18460937 172.57710937 -203.66796875 173.29296875 C-201.70883 175.29798897 -200.77371511 175.74218674 -198 176 C-196.01816721 174.78701052 -196.01816721 174.78701052 -194.20703125 172.87890625 C-193.49796631 172.19393066 -192.78890137 171.50895508 -192.05834961 170.80322266 C-190.94665405 169.69406494 -190.94665405 169.69406494 -189.8125 168.5625 C-188.29004242 167.08102356 -186.76661372 165.60054441 -185.2421875 164.12109375 C-184.51225586 163.40679199 -183.78232422 162.69249023 -183.03027344 161.95654297 C-179.92293459 158.96204879 -176.67009805 156.16420364 -173.37109375 153.3828125 C-171.76530285 152.0878508 -171.76530285 152.0878508 -172 150 C-171.195625 149.6596875 -171.195625 149.6596875 -170.375 149.3125 C-166.25299737 147.03455118 -162.53293843 144.59881529 -161 140 C-159.58203125 138.67578125 -159.58203125 138.67578125 -157.8125 137.3125 C-155.04359451 135.0511332 -153.03065061 132.81424361 -151 129.875 C-148.14324664 125.85410051 -145.3655166 124.22394242 -141 122 C-139.07716915 120.58408173 -139.07716915 120.58408173 -138 119 C-138 118.01 -138 117.02 -138 116 C-137.01 115.67 -136.02 115.34 -135 115 C-134.443125 113.948125 -134.443125 113.948125 -133.875 112.875 C-130.83262812 108.21002979 -125.99088721 104.49544361 -121 102 C-119.95891522 100.00969087 -119.08581433 97.97178024 -118.1953125 95.91015625 C-116.74235166 93.58826785 -115.46196298 93.10478803 -113 92 C-112.195625 91.154375 -111.39125 90.30875 -110.5625 89.4375 C-108 87 -108 87 -105.5 85.875 C-103 86 -103 86 -100.5 88.125 C-99.675 89.07375 -98.85 90.0225 -98 91 C-95.57721501 93.48335462 -93.2100065 95.8319948 -90.5 98 C-87.17917235 100.65666212 -84.29161388 103.68215666 -81.31689453 106.71728516 C-79.485383 108.58561599 -77.64903002 110.44910329 -75.8125 112.3125 C-74.86987305 113.28026367 -74.86987305 113.28026367 -73.90820312 114.26757812 C-73.30556641 114.87666016 -72.70292969 115.48574219 -72.08203125 116.11328125 C-71.53780518 116.66798096 -70.9935791 117.22268066 -70.43286133 117.79418945 C-69.0570782 119.2146276 -69.0570782 119.2146276 -67 119 C-67 119.99 -67 120.98 -67 122 C-65.824375 122.680625 -65.824375 122.680625 -64.625 123.375 C-62 125 -62 125 -61.125 127.4375 C-59.83897318 130.36678331 -59.16735577 130.67978224 -56.4375 132.125 C-53 134 -53 134 -52 137 C-50.75 138.75 -50.75 138.75 -49 140 C-47.68 140 -46.36 140 -45 140 C-45 140.66 -45 141.32 -45 142 C-43.35 142.66 -41.7 143.32 -40 144 C-35.77962588 140.45682058 -31.77576101 136.80444462 -27.95825195 132.82592773 C-23.65486691 128.35242461 -19.63959072 124.71732094 -13.875 122.1953125 C-11.34723352 120.58386137 -10.51856435 118.57639923 -9 116 C-7.11611892 114.00319622 -5.22686419 112.08560832 -3.25 110.1875 C0.24666946 106.77107509 3.65205482 103.36138052 6.8125 99.625 C9.49361963 96.46299159 12.38652456 93.81978522 15.6171875 91.2265625 C17.14103109 90.02824461 17.14103109 90.02824461 18 88 C18.78890625 87.71640625 19.5778125 87.4328125 20.390625 87.140625 C23.50581822 85.77889383 24.13497857 84.68096482 25.75 81.75 C28.49909242 77.31894359 31.34660622 75.20545755 35.75 72.53515625 C40.06034197 69.59424584 43.75937987 65.50363412 46.08203125 60.81640625 C47.30412527 58.39822022 48.56489357 58.14991137 51 57 C54.29671417 54.78060468 54.29671417 54.78060468 57 52 C57.50379029 49.28694223 57.50379029 49.28694223 57 47 C60.50786337 45.03559651 64.14033538 44.07187886 68 43 C67.98259766 44.51400391 67.98259766 44.51400391 67.96484375 46.05859375 C67.86442392 59.39246421 68.39754724 72.68149068 69 86 C75.27 86 81.54 86 88 86 C88.06768782 75.6038449 88.12276508 65.20783537 88.15543652 54.81151009 C88.17111454 49.98444581 88.1923916 45.15753966 88.22631836 40.33056641 C88.25883589 35.6751334 88.2768369 31.01985281 88.28463173 26.36431503 C88.29018896 24.58523025 88.30104043 22.80615411 88.31719017 21.02713394 C88.33886371 18.54150397 88.34197121 16.05650953 88.34057617 13.57080078 C88.351362 12.82993225 88.36214783 12.08906372 88.3732605 11.32574463 C88.39475795 9.06737131 88.39475795 9.06737131 88 6 C84.29878569 3.53252379 81.5027494 3.73174045 77.22387695 3.77294922 C76.43339966 3.77265717 75.64292236 3.77236511 74.82849121 3.77206421 C72.21497634 3.77345786 69.60174634 3.78902062 66.98828125 3.8046875 C65.17653052 3.80841751 63.36477776 3.81126454 61.55302429 3.81326294 C56.78378737 3.82090036 52.0146722 3.8405498 47.2454834 3.8626709 C42.37916715 3.88312697 37.51283123 3.89226415 32.64648438 3.90234375 C23.09759414 3.92379559 13.54882624 3.95897864 4 4 Z " fill="#2ED36B" transform="translate(588,357)"/>
<path d="M0 0 C4.36441622 1.50297777 5.54854587 4.32185783 7.6875 8.25 C11.15701644 14.28631381 14.8276299 17.80820405 21 21 C24.0625 22.625 24.0625 22.625 26 24 C26 25.32 26 26.64 26 28 C24.49609375 29.30859375 24.49609375 29.30859375 22.4375 30.4375 C21.70789063 30.86417969 20.97828125 31.29085937 20.2265625 31.73046875 C19.12441406 32.35888672 19.12441406 32.35888672 18 33 C12.59023065 36.1464985 9.95728534 39.23766086 7.1328125 44.83984375 C5.7329879 47.50916444 3.97522669 49.73214714 2 52 C-2.44335255 50.52218855 -3.84681072 47.15929277 -6 43.3125 C-9.78593596 36.92104014 -13.67122254 33.65472243 -20.49609375 30.4296875 C-23.21502033 28.87722708 -23.96099085 27.89927103 -25 25 C-21.86184602 22.28026655 -18.70773691 20.3103294 -15.0625 18.375 C-10.12758282 15.49324301 -7.89778597 12.33482129 -5.25 7.34765625 C-3.79804853 4.6207099 -2.02004744 2.33082396 0 0 Z " fill="#5A5A5A" transform="translate(970,814)"/>
<path d="M0 0 C0.99 0.33 1.98 0.66 3 1 C4.62131271 4.73532634 4.17053844 9.0921388 4.19287109 13.1015625 C4.20513733 14.32175079 4.20513733 14.32175079 4.21765137 15.56658936 C4.24242275 18.25271883 4.2589955 20.93879596 4.2734375 23.625 C4.27876118 24.54307434 4.28408485 25.46114868 4.28956985 26.40704346 C4.31625883 31.26158818 4.33565181 36.11610749 4.35009766 40.97070312 C4.36346534 44.99046439 4.39137565 49.00972144 4.43212891 53.02929688 C4.48134534 57.88392351 4.50620415 62.73809105 4.51332474 67.59295654 C4.52004961 69.44298315 4.53530368 71.29299901 4.55921555 73.1428833 C4.59074646 75.72861598 4.59092327 78.312564 4.58349609 80.8984375 C4.59990143 81.66323425 4.61630676 82.42803101 4.63320923 83.21600342 C4.58826094 87.03356048 4.3198202 88.66114773 1.65766907 91.48171997 C-1.67347186 93.38474274 -3.72590053 93.41084676 -7.54296875 93.2421875 C-9.40018555 93.16871094 -9.40018555 93.16871094 -11.29492188 93.09375 C-12.57947266 93.0215625 -13.86402344 92.949375 -15.1875 92.875 C-17.13172852 92.80152344 -17.13172852 92.80152344 -19.11523438 92.7265625 C-28.71455511 92.28544489 -28.71455511 92.28544489 -31 90 C-31.17502995 87.41896694 -31.23162279 84.94691837 -31.1953125 82.3671875 C-31.1924826 81.61535187 -31.18965271 80.86351624 -31.18673706 80.08889771 C-31.17552874 77.68410422 -31.15042352 75.27968119 -31.125 72.875 C-31.11497102 71.24609912 -31.10584503 69.61719242 -31.09765625 67.98828125 C-31.07558735 63.99204444 -31.04105351 59.99608506 -31 56 C-36.57290365 60.77149051 -41.76868295 65.69913372 -46.69140625 71.12890625 C-53.51972837 78.65642369 -60.71408653 85.79137181 -67.9375 92.9375 C-70.49126241 95.46446465 -73.04152445 97.99489145 -75.58984375 100.52734375 C-76.16073227 101.08993393 -76.73162079 101.65252411 -77.31980896 102.23216248 C-80.77457459 105.66585326 -83.91358345 109.23221546 -87 113 C-88.15479562 114.07780925 -89.34030066 115.12427303 -90.5625 116.125 C-95.86953284 120.64505839 -100.70938085 125.6228682 -105.59838867 130.58447266 C-106.97253463 131.97226194 -108.36114687 133.34567929 -109.75 134.71875 C-112.02567694 136.92998803 -112.02567694 136.92998803 -113.8125 139.375 C-116.29919394 142.35903273 -119.02295539 144.77757999 -121.98046875 147.28515625 C-123.23482211 148.35026481 -124.47082835 149.43790329 -125.67578125 150.55859375 C-128.11490433 152.78342694 -129.54078093 153.95008488 -132.875 154.3125 C-133.926875 154.1578125 -133.926875 154.1578125 -135 154 C-135 153.34 -135 152.68 -135 152 C-135.680625 151.814375 -136.36125 151.62875 -137.0625 151.4375 C-142.56590827 148.74434276 -146.28174424 143.86848491 -150.1875 139.25 C-153.8127693 135.0094327 -157.89677546 131.34752349 -162.08862305 127.68066406 C-163.4275004 126.49216246 -164.71839074 125.25004253 -166 124 C-166 123.34 -166 122.68 -166 122 C-166.78375 121.9175 -167.5675 121.835 -168.375 121.75 C-171 121 -171 121 -172.375 119.125 C-173 117 -173 117 -172 114 C-171.58070724 114.42151337 -171.16141449 114.84302673 -170.72941589 115.27731323 C-166.36877496 119.66006092 -162.00463127 124.03929794 -157.63842773 128.41650391 C-156.00894329 130.05102013 -154.38035709 131.68643235 -152.75268555 133.32275391 C-150.41429898 135.67325647 -148.07271151 138.02052835 -145.73046875 140.3671875 C-144.63813179 141.46726639 -144.63813179 141.46726639 -143.52372742 142.58956909 C-142.50300896 143.61040085 -142.50300896 143.61040085 -141.46166992 144.65185547 C-140.56565315 145.55120316 -140.56565315 145.55120316 -139.65153503 146.46871948 C-137.8716651 148.20035671 -137.8716651 148.20035671 -135 150 C-130.25605472 149.77121909 -127.95811834 148.58154925 -124.65039062 145.24975586 C-123.44884338 144.05732521 -123.44884338 144.05732521 -122.22302246 142.84080505 C-120.95247009 141.54095421 -120.95247009 141.54095421 -119.65625 140.21484375 C-118.76893188 139.32519424 -117.88161377 138.43554474 -116.96740723 137.51893616 C-115.09204811 135.63383574 -113.22210498 133.74483837 -111.35986328 131.84692383 C-108.9914565 129.43347491 -106.6082872 127.03533238 -104.21912384 124.64244747 C-101.92136804 122.3391502 -99.63260174 120.02698458 -97.34375 117.71484375 C-96.49671509 116.86244614 -95.64968018 116.01004852 -94.77697754 115.13182068 C-90.58956599 110.86083462 -86.71766932 106.57726 -83.24874878 101.69914246 C-78.91491361 95.80219709 -73.09420176 90.32367582 -67.125 86.125 C-58.90265129 80.29800495 -51.74516421 72.30658959 -45.38671875 64.53515625 C-43.72335442 62.69374165 -41.90084173 61.15663931 -40 59.5625 C-36.47765622 56.59241662 -33.89315094 53.41447618 -31.32421875 49.6015625 C-30 48 -30 48 -27 47 C-27 60.86 -27 74.72 -27 89 C-18.09 89 -9.18 89 0 89 C0 59.63 0 30.26 0 0 Z " fill="#10612D" transform="translate(680,358)"/>
<path d="M0 0 C0.89762054 -0.00014603 1.79524109 -0.00029205 2.72006226 -0.0004425 C5.6960489 0.00025586 8.67197347 0.00804472 11.64794922 0.01586914 C13.70775315 0.01773359 15.76755753 0.01915737 17.82736206 0.02015686 C23.25581074 0.02397991 28.68423277 0.03380841 34.1126709 0.04486084 C39.64916626 0.05507951 45.18566591 0.05965546 50.72216797 0.06469727 C61.59066927 0.07543084 72.45915078 0.09250474 83.32763672 0.11352539 C83.32763672 1.10352539 83.32763672 2.09352539 83.32763672 3.11352539 C52.96763672 3.11352539 22.60763672 3.11352539 -8.67236328 3.11352539 C-8.67236328 12.35352539 -8.67236328 21.59352539 -8.67236328 31.11352539 C-5.83126953 31.09032227 -2.99017578 31.06711914 -0.06298828 31.04321289 C2.69058791 31.02761255 5.44415916 31.01546998 8.19775391 31.00366211 C10.11053676 30.99360849 12.02330427 30.97996366 13.93603516 30.96264648 C16.68639924 30.93837017 19.43655999 30.92703589 22.18701172 30.91821289 C23.46847076 30.90272903 23.46847076 30.90272903 24.77581787 30.88693237 C25.57634583 30.88678131 26.37687378 30.88663025 27.20166016 30.88647461 C28.25423004 30.87981277 28.25423004 30.87981277 29.32806396 30.87301636 C31.66636317 31.15426748 33.29031347 31.96067438 35.32763672 33.11352539 C34.94091797 33.56083008 34.55419922 34.00813477 34.15576172 34.46899414 C33.63498047 35.07356445 33.11419922 35.67813477 32.57763672 36.30102539 C32.03107422 36.93524414 31.48451172 37.56946289 30.92138672 38.22290039 C29.59553014 39.79573026 28.32851596 41.41793305 27.07763672 43.05102539 C26.21138672 44.07196289 26.21138672 44.07196289 25.32763672 45.11352539 C24.66763672 45.11352539 24.00763672 45.11352539 23.32763672 45.11352539 C23.32763672 45.77352539 23.32763672 46.43352539 23.32763672 47.11352539 C22.06982422 48.38305664 22.06982422 48.38305664 20.20263672 49.92602539 C11.09828282 57.7043455 2.3965638 65.48111321 -4.98486328 74.94555664 C-11.20751883 82.55918853 -18.6670263 89.23099539 -25.67236328 96.11352539 C-28.74020291 99.14325521 -31.7350566 102.22931191 -34.70361328 105.35571289 C-36.1928581 106.90031018 -37.68244954 108.44457333 -39.17236328 109.98852539 C-39.91873047 110.78516602 -40.66509766 111.58180664 -41.43408203 112.40258789 C-42.16240234 113.15024414 -42.89072266 113.89790039 -43.64111328 114.66821289 C-44.62241211 115.69664307 -44.62241211 115.69664307 -45.62353516 116.74584961 C-47.67236328 118.11352539 -47.67236328 118.11352539 -50.29541016 117.94702148 C-53.37449947 116.86731617 -54.6117694 115.37279697 -56.67236328 112.86352539 C-57.36458984 112.04368164 -58.05681641 111.22383789 -58.77001953 110.37915039 C-59.39779297 109.63149414 -60.02556641 108.88383789 -60.67236328 108.11352539 C-63.01534985 105.71046224 -65.40262838 103.36962748 -67.83642578 101.05883789 C-72.36067648 96.68195693 -75.89933091 92.78015676 -78.67236328 87.11352539 C-74.88715715 87.65426912 -73.08058773 89.18925285 -70.67236328 92.11352539 C-70.67236328 93.10352539 -70.67236328 94.09352539 -70.67236328 95.11352539 C-70.11548828 95.15477539 -69.55861328 95.19602539 -68.98486328 95.23852539 C-66.05317436 96.34781309 -64.83941576 98.20594519 -62.96142578 100.63696289 C-61.62883544 102.32129023 -61.62883544 102.32129023 -59.10986328 103.61352539 C-56.67236328 105.11352539 -56.67236328 105.11352539 -54.60986328 108.23852539 C-53.0029062 111.16973999 -53.0029062 111.16973999 -50.74267578 111.97680664 C-48.61384168 112.34487608 -48.61384168 112.34487608 -47.07470703 110.89868164 C-46.59130859 110.33020508 -46.10791016 109.76172852 -45.60986328 109.17602539 C-44.13720703 107.46118164 -44.13720703 107.46118164 -42.67236328 106.11352539 C-41.68236328 106.11352539 -40.69236328 106.11352539 -39.67236328 106.11352539 C-39.67236328 105.45352539 -39.67236328 104.79352539 -39.67236328 104.11352539 C-38.78548828 103.41227539 -37.89861328 102.71102539 -36.98486328 101.98852539 C-34.37525691 99.92411847 -32.78792057 97.92082401 -31.10986328 95.05102539 C-28.47076487 90.55352649 -25.70274276 87.79031855 -20.67236328 86.11352539 C-20.17736328 84.62852539 -20.17736328 84.62852539 -19.67236328 83.11352539 C-19.01236328 83.11352539 -18.35236328 83.11352539 -17.67236328 83.11352539 C-17.42486328 82.53602539 -17.17736328 81.95852539 -16.92236328 81.36352539 C-15.50419077 78.81081486 -13.76191199 77.1356693 -11.67236328 75.11352539 C-11.34236328 74.45352539 -11.01236328 73.79352539 -10.67236328 73.11352539 C-9.68236328 73.11352539 -8.69236328 73.11352539 -7.67236328 73.11352539 C-7.67236328 72.12352539 -7.67236328 71.13352539 -7.67236328 70.11352539 C-3.44379185 66.11352539 -3.44379185 66.11352539 0.32763672 66.11352539 C0.32763672 65.45352539 0.32763672 64.79352539 0.32763672 64.11352539 C0.98763672 64.11352539 1.64763672 64.11352539 2.32763672 64.11352539 C2.70275391 63.00750977 2.70275391 63.00750977 3.08544922 61.87915039 C4.42894234 58.88797702 5.88073062 57.15914576 8.20263672 54.86352539 C8.88068359 54.17774414 9.55873047 53.49196289 10.25732422 52.78540039 C12.39121393 51.06218379 13.72056338 50.71602398 16.32763672 50.11352539 C17.0449145 48.46800577 17.710889 46.7993025 18.32763672 45.11352539 C19.31763672 44.45352539 20.30763672 43.79352539 21.32763672 43.11352539 C22.35375621 41.46281143 23.35071815 39.79382533 24.32763672 38.11352539 C25.63801606 36.42875195 26.9658675 34.75703996 28.32763672 33.11352539 C27.82312988 33.27506104 27.31862305 33.43659668 26.79882812 33.60302734 C23.46406995 34.29192078 20.17850269 34.27606558 16.78857422 34.28149414 C16.06650787 34.28482254 15.34444153 34.28815094 14.60049438 34.2915802 C13.07920975 34.29662955 11.5579141 34.29898914 10.03662109 34.29882812 C7.70375587 34.30102434 5.37135646 34.31922695 3.03857422 34.33813477 C1.55940917 34.34106711 0.08024188 34.34305297 -1.39892578 34.34399414 C-2.09788971 34.35117966 -2.79685364 34.35836517 -3.51699829 34.36576843 C-8.44352444 34.34236423 -8.44352444 34.34236423 -10.67236328 32.11352539 C-13.63795188 22.99910171 -15.72575689 12.62035369 -12.29736328 3.42602539 C-9.15435214 -1.04672124 -5.00700455 -0.02110191 0 0 Z " fill="#0E692F" transform="translate(596.67236328125,353.886474609375)"/>
<path d="M0 0 C1.9375 1.5 1.9375 1.5 3 3 C2.67 3.99 2.34 4.98 2 6 C1.2575 5.484375 0.515 4.96875 -0.25 4.4375 C-2.78746535 2.84075637 -2.78746535 2.84075637 -5.0625 3 C-7.818674 4.42254142 -9.0980263 6.55460524 -11 9 C-12.66418916 10.51688055 -14.3772651 11.95080584 -16.12109375 13.375 C-18.53959714 15.46667861 -20.75236926 17.72580937 -23 20 C-23.95458387 20.94516853 -24.91034747 21.88914681 -25.8671875 22.83203125 C-26.86981546 23.82549682 -27.87241938 24.81898665 -28.875 25.8125 C-29.36613281 26.29525391 -29.85726562 26.77800781 -30.36328125 27.27539062 C-33.08777819 29.98219603 -35.67602847 32.75177759 -38.17578125 35.66796875 C-42.50152114 40.66319677 -47.14742021 45.33349348 -51.81762695 50.00292969 C-53.33249086 51.52002025 -54.83912592 53.04499737 -56.34570312 54.5703125 C-57.309408 55.53694493 -58.27358298 56.50310897 -59.23828125 57.46875 C-60.10493408 58.33951172 -60.97158691 59.21027344 -61.86450195 60.10742188 C-64 62 -64 62 -66 62 C-66.27585937 62.59167969 -66.55171875 63.18335938 -66.8359375 63.79296875 C-69.37708421 68.6109147 -73.23775808 72.44181774 -77.38671875 75.9140625 C-83.00010592 80.77482756 -88.19912368 86.04960037 -93.43725586 91.30688477 C-95.19077192 93.06578196 -96.9495981 94.81924241 -98.70898438 96.57226562 C-99.84146675 97.70540853 -100.97363902 98.83886145 -102.10546875 99.97265625 C-102.62328415 100.48844742 -103.14109955 101.00423859 -103.67460632 101.53565979 C-106.17808823 104.05510515 -108.521597 106.60364459 -110.7434082 109.37670898 C-111.4880835 110.24239502 -112.23275879 111.10808105 -113 112 C-113.66 112 -114.32 112 -115 112 C-115.50265692 114.78839304 -115.50265692 114.78839304 -115 118 C-112.56297151 120.43312071 -112.56297151 120.43312071 -110.65234375 121.78125 C-107.38021997 124.19473137 -104.65171573 127.24645369 -102 130.3125 C-100.12390815 132.20987002 -100.12390815 132.20987002 -97.58911133 132.28410339 C-94.52346868 131.94771018 -93.70306432 131.31427789 -91.57421875 129.1418457 C-90.9500708 128.5173201 -90.32592285 127.89279449 -89.68286133 127.24934387 C-89.02439209 126.56506821 -88.36592285 125.88079254 -87.6875 125.17578125 C-86.99615967 124.47736618 -86.30481934 123.77895111 -85.5925293 123.05937195 C-83.38301249 120.82187454 -81.19146335 118.56766868 -79 116.3125 C-77.52459671 114.81201033 -76.04804647 113.31264752 -74.5703125 111.81445312 C-71.84827591 109.05160827 -69.13307269 106.28242024 -66.42578125 103.50512695 C-63.63886498 100.6476625 -60.82959016 97.81518614 -58 95 C-57.3915625 94.3915625 -56.783125 93.783125 -56.15625 93.15625 C-54.4375 91.4375 -52.71875 89.71875 -51 88 C-50.21367187 87.21238281 -49.42734375 86.42476563 -48.6171875 85.61328125 C-46.86717197 83.86587768 -45.11191727 82.12370598 -43.3515625 80.38671875 C-38.63831371 75.7207375 -34.05989332 71.01813232 -29.75 65.97265625 C-26.34927265 62.13924707 -22.65308027 58.5906937 -19 55 C-18.154375 54.154375 -17.30875 53.30875 -16.4375 52.4375 C-12.29166667 48.29166667 -8.14583333 44.14583333 -4 40 C-2.35 41.98 -0.7 43.96 1 46 C0.13955078 45.88325928 -0.72089844 45.76651855 -1.60742188 45.64624023 C-6.20620399 46.12577645 -8.23516299 48.45731205 -11.28125 51.66015625 C-11.85782349 52.24284775 -12.43439697 52.82553925 -13.02844238 53.42588806 C-14.86680307 55.29113983 -16.6830511 57.17640972 -18.5 59.0625 C-19.72131675 60.30535416 -20.94396073 61.54690558 -22.16796875 62.78710938 C-27.14591587 67.85732961 -32.03260702 72.93048694 -36.57263184 78.40135193 C-38.67852605 80.75994715 -41.06154247 82.74097648 -43.4609375 84.79296875 C-46.88011534 87.76502333 -50.22822858 90.8082557 -53.5625 93.875 C-54.18761475 94.43968994 -54.81272949 95.00437988 -55.45678711 95.58618164 C-58.70519813 98.58809384 -61.56485243 101.62513893 -64.22265625 105.1640625 C-68.49095832 110.80279934 -73.3332301 115.84856553 -78.28759766 120.87792969 C-79.35131036 121.96487327 -80.40597636 123.06073998 -81.45166016 124.16503906 C-91.26837419 134.5289944 -91.26837419 134.5289944 -96.91015625 135.453125 C-101.02669501 135.37868488 -103.46549996 133.98350239 -106.5625 131.25 C-107.40941406 130.53328125 -108.25632812 129.8165625 -109.12890625 129.078125 C-111 127 -111 127 -111 124 C-111.99 124 -112.98 124 -114 124 C-119.06090373 116.09233792 -119.06090373 116.09233792 -118 111 C-116.29092104 108.35333854 -114.43849213 106.00537795 -112 104 C-111.01 104 -110.02 104 -109 104 C-108.7525 103.4225 -108.505 102.845 -108.25 102.25 C-106.80606301 99.65091342 -105.26478013 97.92163162 -103 96 C-102.01 96 -101.02 96 -100 96 C-99.89945312 95.4225 -99.79890625 94.845 -99.6953125 94.25 C-98.25007019 89.57326085 -94.20881037 85.40518913 -90.12109375 82.8046875 C-89.52425781 82.49789062 -88.92742187 82.19109375 -88.3125 81.875 C-84.53713323 79.73799994 -83.16873451 77.69488102 -81 74 C-80.34 73.34 -79.68 72.68 -79 72 C-78.01 72 -77.02 72 -76 72 C-75.87625 71.38125 -75.7525 70.7625 -75.625 70.125 C-75 68 -75 68 -73 66 C-72.01 66 -71.02 66 -70 66 C-69.9071875 64.8553125 -69.9071875 64.8553125 -69.8125 63.6875 C-68.72682229 60.09641221 -67.18039306 59.87932317 -64 58 C-62.61703127 56.20052314 -61.40230779 54.35676062 -60.2109375 52.42578125 C-59.81132812 51.95527344 -59.41171875 51.48476563 -59 51 C-58.01 51 -57.02 51 -56 51 C-55.7525 50.38125 -55.505 49.7625 -55.25 49.125 C-54 47 -54 47 -52.0625 46.0625 C-49.24310459 44.61008418 -48.55776864 42.7416728 -47 40 C-46.14436366 38.92184523 -45.26844081 37.85954095 -44.375 36.8125 C-42.03393118 34.2640146 -42.03393118 34.2640146 -41 32 C-40.01 32 -39.02 32 -38 32 C-37.95875 31.443125 -37.9175 30.88625 -37.875 30.3125 C-36.52636494 26.7482502 -34.03329722 25.183974 -31 23 C-30.01 23 -29.02 23 -28 23 C-27.62875 21.7934375 -27.62875 21.7934375 -27.25 20.5625 C-26.8375 19.716875 -26.425 18.87125 -26 18 C-24.66666667 17.66666667 -23.33333333 17.33333333 -22 17 C-21.71898437 16.27167969 -21.43796875 15.54335938 -21.1484375 14.79296875 C-19.79268056 11.49580476 -18.02062035 9.44290706 -15.625 6.8125 C-14.85414063 5.95269531 -14.08328125 5.09289062 -13.2890625 4.20703125 C-9.0552183 0.12491184 -5.88559478 -0.53505407 0 0 Z " fill="#0E642D" transform="translate(487,407)"/>
<path d="M0 0 C30.36 0 60.72 0 92 0 C92 29.7 92 59.4 92 90 C83.09 90 74.18 90 65 90 C65 76.8 65 63.6 65 50 C65.33 50 65.66 50 66 50 C67.061341 56.9155632 67.14950737 63.69881537 67.125 70.6875 C67.12886719 71.80189453 67.13273438 72.91628906 67.13671875 74.06445312 C67.13542969 75.14017578 67.13414062 76.21589844 67.1328125 77.32421875 C67.13168457 78.29447998 67.13055664 79.26474121 67.12939453 80.2644043 C67 83 67 83 66 88 C73.92 88 81.84 88 90 88 C90 61.27 90 34.54 90 7 C89.34 7 88.68 7 88 7 C87.505 5.515 87.505 5.515 87 4 C58.95 3.34 30.9 2.68 2 2 C2 9.26 2 16.52 2 24 C3.01896734 25.24557374 3.01896734 25.24557374 5.15795898 25.08178711 C6.56283569 25.05483765 6.56283569 25.05483765 7.99609375 25.02734375 C9.54780273 25.00897461 9.54780273 25.00897461 11.13085938 24.99023438 C13.30020603 24.95563759 15.469489 24.9167217 17.63867188 24.87304688 C24.35535196 24.80269348 30.47725562 25.37364659 37 27 C37 27.33 37 27.66 37 28 C24.79 28 12.58 28 0 28 C0 18.76 0 9.52 0 0 Z " fill="#3CD473" transform="translate(588,357)"/>
<path d="M0 0 C0.89762054 -0.00014603 1.79524109 -0.00029205 2.72006226 -0.0004425 C5.6960489 0.00025586 8.67197347 0.00804472 11.64794922 0.01586914 C13.70775315 0.01773359 15.76755753 0.01915737 17.82736206 0.02015686 C23.25581074 0.02397991 28.68423277 0.03380841 34.1126709 0.04486084 C39.64916626 0.05507951 45.18566591 0.05965546 50.72216797 0.06469727 C61.59066927 0.07543084 72.45915078 0.09250474 83.32763672 0.11352539 C83.32763672 1.10352539 83.32763672 2.09352539 83.32763672 3.11352539 C52.96763672 3.11352539 22.60763672 3.11352539 -8.67236328 3.11352539 C-8.67236328 12.35352539 -8.67236328 21.59352539 -8.67236328 31.11352539 C-5.83126953 31.09032227 -2.99017578 31.06711914 -0.06298828 31.04321289 C2.69058791 31.02761255 5.44415916 31.01546998 8.19775391 31.00366211 C10.11053676 30.99360849 12.02330427 30.97996366 13.93603516 30.96264648 C16.68639924 30.93837017 19.43655999 30.92703589 22.18701172 30.91821289 C23.46847076 30.90272903 23.46847076 30.90272903 24.77581787 30.88693237 C25.57634583 30.88678131 26.37687378 30.88663025 27.20166016 30.88647461 C28.25423004 30.87981277 28.25423004 30.87981277 29.32806396 30.87301636 C31.66636317 31.15426748 33.29031347 31.96067438 35.32763672 33.11352539 C34.07763672 34.67602539 34.07763672 34.67602539 32.32763672 36.11352539 C30.14013672 35.80102539 30.14013672 35.80102539 28.32763672 35.11352539 C28.32763672 34.45352539 28.32763672 33.79352539 28.32763672 33.11352539 C27.57087646 33.35582886 27.57087646 33.35582886 26.79882812 33.60302734 C23.46406995 34.29192078 20.17850269 34.27606558 16.78857422 34.28149414 C16.06650787 34.28482254 15.34444153 34.28815094 14.60049438 34.2915802 C13.07920975 34.29662955 11.5579141 34.29898914 10.03662109 34.29882812 C7.70375587 34.30102434 5.37135646 34.31922695 3.03857422 34.33813477 C1.55940917 34.34106711 0.08024188 34.34305297 -1.39892578 34.34399414 C-2.09788971 34.35117966 -2.79685364 34.35836517 -3.51699829 34.36576843 C-8.44352444 34.34236423 -8.44352444 34.34236423 -10.67236328 32.11352539 C-13.63795188 22.99910171 -15.72575689 12.62035369 -12.29736328 3.42602539 C-9.15435214 -1.04672124 -5.00700455 -0.02110191 0 0 Z " fill="#076127" transform="translate(596.67236328125,353.886474609375)"/>
<path d="M0 0 C1.485 0.495 1.485 0.495 3 1 C4.62131271 4.73532634 4.17053844 9.0921388 4.19287109 13.1015625 C4.20513733 14.32175079 4.20513733 14.32175079 4.21765137 15.56658936 C4.24242275 18.25271883 4.2589955 20.93879596 4.2734375 23.625 C4.27876118 24.54307434 4.28408485 25.46114868 4.28956985 26.40704346 C4.31625883 31.26158818 4.33565181 36.11610749 4.35009766 40.97070312 C4.36346534 44.99046439 4.39137565 49.00972144 4.43212891 53.02929688 C4.48134534 57.88392351 4.50620415 62.73809105 4.51332474 67.59295654 C4.52004961 69.44298315 4.53530368 71.29299901 4.55921555 73.1428833 C4.59074646 75.72861598 4.59092327 78.312564 4.58349609 80.8984375 C4.59990143 81.66323425 4.61630676 82.42803101 4.63320923 83.21600342 C4.58826094 87.03356048 4.3198202 88.66114773 1.65766907 91.48171997 C-1.67347186 93.38474274 -3.72590053 93.41084676 -7.54296875 93.2421875 C-9.40018555 93.16871094 -9.40018555 93.16871094 -11.29492188 93.09375 C-12.57947266 93.0215625 -13.86402344 92.949375 -15.1875 92.875 C-17.13172852 92.80152344 -17.13172852 92.80152344 -19.11523438 92.7265625 C-28.71455511 92.28544489 -28.71455511 92.28544489 -31 90 C-31.23046875 87.25 -31.23046875 87.25 -31.1875 84 C-31.18105469 82.9275 -31.17460938 81.855 -31.16796875 80.75 C-31 78 -31 78 -30 76 C-29.34 76 -28.68 76 -28 76 C-26.84863148 80.60547409 -27 83.93994143 -27 89 C-18.09 89 -9.18 89 0 89 C0 59.63 0 30.26 0 0 Z " fill="#0A5C26" transform="translate(680,358)"/>
<path d="M0 0 C28.35303119 -0.12123056 56.66131742 0.05142485 85 1 C85 1.99 85 2.98 85 4 C84.01 3.505 84.01 3.505 83 3 C80.4377732 2.87773147 77.90091182 2.81434423 75.33740234 2.79467773 C74.15190544 2.77982834 74.15190544 2.77982834 72.94245911 2.76467896 C70.3236493 2.73302878 67.70482134 2.70829267 65.0859375 2.68359375 C63.27275108 2.66302726 61.45956948 2.64203087 59.64639282 2.62062073 C54.86901758 2.56536858 50.09159885 2.51597318 45.31414795 2.46777344 C40.44116332 2.41758134 35.56824202 2.36188333 30.6953125 2.30664062 C21.1302624 2.19902062 11.56515738 2.09758419 2 2 C2.33 2.99 2.66 3.98 3 5 C3.09475844 6.95648317 3.12988471 8.91622955 3.125 10.875 C3.12757813 11.90367187 3.13015625 12.93234375 3.1328125 13.9921875 C3.00995061 16.774648 2.62944236 19.29239874 2 22 C2.66 21.855625 3.32 21.71125 4 21.5625 C11.78966078 20.1019386 19.33759701 19.80765765 27.25 19.8125 C28.26707031 19.81185547 29.28414062 19.81121094 30.33203125 19.81054688 C36.29518553 19.85330743 42.08607946 20.23315346 48 21 C48.495 23.97 48.495 23.97 49 27 C48.01 27.495 48.01 27.495 47 28 C47 27.01 47 26.02 47 25 C46.01 25 45.02 25 44 25 C43.67 26.32 43.34 27.64 43 29 C42.28457031 28.70351563 41.56914063 28.40703125 40.83203125 28.1015625 C30.20900859 23.969573 20.3274512 23.72748032 9.05151367 24.02294922 C7.53521362 24.05606201 7.53521362 24.05606201 5.98828125 24.08984375 C5.07602783 24.11941162 4.16377441 24.14897949 3.22387695 24.17944336 C1 24 1 24 -1 22 C-1.23046875 19.53125 -1.23046875 19.53125 -1.1875 16.5 C-1.18105469 15.5203125 -1.17460938 14.540625 -1.16796875 13.53125 C-1.02813953 10.59158443 -0.78917343 7.70516666 -0.48950195 4.77929688 C-0.39820511 3.88303589 -0.30690826 2.9867749 -0.21284485 2.06335449 C-0.14260605 1.38244751 -0.07236725 0.70154053 0 0 Z " fill="#29D569" transform="translate(590,359)"/>
<path d="M0 0 C6.85023847 1.05388284 11.79959112 6.50021136 16.46484375 11.19921875 C17.06124161 11.79370316 17.65763947 12.38818756 18.27210999 13.00068665 C19.5275339 14.25475586 20.78046096 15.5113291 22.03100586 16.77026367 C23.92151427 18.67142419 25.82238014 20.56174729 27.72460938 22.45117188 C33.40434977 28.12531067 38.93661588 33.72920921 43.67016602 40.24145508 C44.99296778 41.99070073 46.41466675 43.48830804 48 45 C47.505 45.99 47.505 45.99 47 47 C43.30274654 44.14303142 40.79207986 41.81105977 38.32421875 37.8125 C34.6376943 32.76663763 29.7986188 27.64550369 24.40234375 24.47265625 C21.70898078 22.82160285 20.34346313 21.17280518 18.5 18.625 C14.25937628 12.97388805 9.96528921 8.74564671 4 5 C0.77513169 6.38508444 -0.99382399 7.90592505 -3.1875 10.625 C-6.46688365 14.51220045 -10.03421716 17.82870534 -13.88671875 21.140625 C-18.10418333 24.85137018 -21.62068773 28.91543082 -25.12109375 33.29296875 C-27.37808549 35.3434997 -29.01132583 35.65653316 -32 36 C-29.83589022 29.79515388 -26.63816188 26.08144759 -21.9375 21.5625 C-21.30005859 20.92634766 -20.66261719 20.29019531 -20.00585938 19.63476562 C-15.28148496 15 -15.28148496 15 -13 15 C-12.60941406 14.10087891 -12.60941406 14.10087891 -12.2109375 13.18359375 C-10.91715749 10.85061626 -9.70531236 9.70222219 -7.625 8.0625 C-4.65871694 5.6287855 -2.28379912 3.1059668 0 0 Z " fill="#3BC76D" transform="translate(481,409)"/>
<path d="M0 0 C7.9551446 1.07539216 12.95712753 7.694853 17.96875 13.51953125 C19 15 19 15 19 17 C19.53826416 17.21229248 20.07652832 17.42458496 20.63110352 17.64331055 C23.87969292 19.50380847 26.30210833 22.05637936 28.90234375 24.70703125 C29.46192276 25.26944016 30.02150177 25.83184906 30.59803772 26.41130066 C32.38262178 28.20704701 34.16013555 30.00961047 35.9375 31.8125 C37.12909311 33.01413235 38.32114576 34.2153092 39.51367188 35.41601562 C42.20627941 38.12854982 44.89363502 40.84619794 47.5788269 43.56607056 C48.96527057 44.96495884 50.36058334 46.35503928 51.75610352 47.74487305 C53.19050602 49.18645458 54.58912888 50.66514551 55.9375 52.1875 C59.71706744 55.50893806 63.57823258 56.23253441 68.5 56.125 C71.44201252 55.73437985 72.66126876 55.34172225 74.76953125 53.21484375 C76.32841242 51.09959575 76.32841242 51.09959575 77.61328125 48.91015625 C79.19121704 46.73660526 80.54043256 46.00165753 83 45 C82.10553427 49.88872928 79.2309547 52.28412118 75.8125 55.6875 C75.24724609 56.28111328 74.68199219 56.87472656 74.09960938 57.48632812 C73.53693359 58.05158203 72.97425781 58.61683594 72.39453125 59.19921875 C71.88768799 59.71315186 71.38084473 60.22708496 70.85864258 60.7565918 C68.21805188 62.52311333 66.16192728 62.80700638 63 63 C60.66848755 61.56616211 60.66848755 61.56616211 58.41064453 59.33984375 C57.5469928 58.50437012 56.68334106 57.66889648 55.79351807 56.80810547 C54.8716571 55.88143066 53.94979614 54.95475586 53 54 C52.02551112 53.04556229 51.04954729 52.09262848 50.07220459 51.14111328 C46.83237491 47.97372365 43.6301793 44.76955786 40.4296875 41.5625 C39.25585232 40.38934004 38.08186886 39.21632843 36.90774536 38.04345703 C34.4707268 35.60789992 32.03549424 33.17057534 29.6015625 30.73193359 C26.47547469 27.60009193 23.34484082 24.47283869 20.21290398 21.34684753 C17.79886713 18.93640992 15.38719913 16.52361366 12.97626114 14.1100769 C11.82149847 12.95464614 10.66598971 11.79996056 9.50973129 10.64602661 C7.90624459 9.04506206 6.30596813 7.44095826 4.70654297 5.8359375 C3.79516571 4.92376465 2.88378845 4.0115918 1.9447937 3.07177734 C0 1 0 1 0 0 Z " fill="#37C96D" transform="translate(482,446)"/>
<path d="M0 0 C3.33727786 1.17255709 5.77437487 2.18868404 8 5 C8 5.66 8 6.32 8 7 C8.59022949 7.26353271 9.18045898 7.52706543 9.78857422 7.79858398 C12.09160527 9.04976701 13.56361442 10.34804978 15.3828125 12.22265625 C15.99253906 12.84333984 16.60226562 13.46402344 17.23046875 14.10351562 C17.85566406 14.74998047 18.48085938 15.39644531 19.125 16.0625 C20.37536074 17.3472393 21.62786516 18.62989681 22.8828125 19.91015625 C23.43340332 20.47871338 23.98399414 21.04727051 24.55126953 21.63305664 C25.97414012 23.10729905 25.97414012 23.10729905 28 24 C28 24.99 28 25.98 28 27 C28.61875 27.12375 29.2375 27.2475 29.875 27.375 C32 28 32 28 34 30 C34.12246094 30.64839844 34.24492188 31.29679687 34.37109375 31.96484375 C35.23361756 34.75599224 36.53106169 35.2097208 39.0625 36.5625 C41.28515625 37.75390625 41.28515625 37.75390625 43 39 C43 39.99 43 40.98 43 42 C43.99 42.33 44.98 42.66 46 43 C46 43.66 46 44.32 46 45 C47.32 45 48.64 45 50 45 C50 45.66 50 46.32 50 47 C52.32009997 47.7543877 52.32009997 47.7543877 55 48 C56.95260198 46.99698223 56.95260198 46.99698223 58.625 45.25 C59.29789063 44.61449219 59.97078125 43.97898437 60.6640625 43.32421875 C61.43492187 42.55722656 62.20578125 41.79023438 63 41 C63.7110791 40.29931396 63.7110791 40.29931396 64.43652344 39.58447266 C67.65141203 36.41592294 70.83450877 33.21786149 74 30 C74.66 30.33 75.32 30.66 76 31 C72.96105954 35.74074712 70.06548678 40.07470242 66 44 C65.54625 44.86625 65.0925 45.7325 64.625 46.625 C62.42378722 49.84215714 60.79186738 50.27079473 57 51 C50.49797542 50.65778818 46.93070793 48.75908945 42.1875 44.4375 C40 42 40 42 40 40 C39.46318604 39.78915771 38.92637207 39.57831543 38.37329102 39.36108398 C35.09676509 37.48199418 32.65132652 34.89692333 30.02734375 32.22265625 C29.46302139 31.655504 28.89869904 31.08835175 28.317276 30.50401306 C26.51925517 28.69482855 24.72831283 26.87881682 22.9375 25.0625 C21.72897879 23.84394151 20.51999924 22.62583742 19.31054688 21.40820312 C17.09211639 19.17345712 14.8763029 16.93618934 12.66381836 14.69555664 C11.19686955 13.21112975 9.7277237 11.72882465 8.24902344 10.25610352 C6.528819 8.52614812 4.92408287 6.70619059 3.3125 4.875 C2.68988281 4.17117188 2.06726563 3.46734375 1.42578125 2.7421875 C0 1 0 1 0 0 Z " fill="#22D265" transform="translate(493,452)"/>
<path d="M0 0 C1 3 1 3 0.0625 5.625 C-2.18734804 9.30656952 -4.75612422 12.29628117 -7.671875 15.4609375 C-9.52125106 17.47787448 -11.30367641 19.52333029 -13.08203125 21.6015625 C-17.77799176 26.98473674 -22.86609538 31.97425267 -27.9375 37 C-28.9175531 37.97502386 -29.8973724 38.9502828 -30.87695312 39.92578125 C-33.24902313 42.28616618 -35.6234086 44.64416905 -38 47 C-38.66 46.01 -39.32 45.02 -40 44 C-39.12225353 42.36515949 -38.22199681 40.74239232 -37.3125 39.125 C-36.81363281 38.22007812 -36.31476562 37.31515625 -35.80078125 36.3828125 C-33.69561845 33.59723917 -32.17067688 33.26827075 -29 32 C-27.94938443 30.36476769 -26.95598963 28.69229477 -26 27 C-24.11612397 25.00320158 -22.22670399 23.08576092 -20.25 21.1875 C-16.17887528 17.20430718 -12.29568759 13.16436079 -8.6015625 8.82421875 C-5.88724289 5.73254251 -2.94790392 2.86726218 0 0 Z " fill="#2CD669" transform="translate(604,446)"/>
<path d="M0 0 C4.36441622 1.50297777 5.54854587 4.32185783 7.6875 8.25 C11.15701644 14.28631381 14.8276299 17.80820405 21 21 C24.0625 22.625 24.0625 22.625 26 24 C26 25.32 26 26.64 26 28 C24.49609375 29.30859375 24.49609375 29.30859375 22.4375 30.4375 C21.70789063 30.86417969 20.97828125 31.29085937 20.2265625 31.73046875 C19.12441406 32.35888672 19.12441406 32.35888672 18 33 C12.59023065 36.1464985 9.95728534 39.23766086 7.1328125 44.83984375 C5.7329879 47.50916444 3.97522669 49.73214714 2 52 C-2.44335255 50.52218855 -3.84681072 47.15929277 -6 43.3125 C-9.78593596 36.92104014 -13.67122254 33.65472243 -20.49609375 30.4296875 C-23.21502033 28.87722708 -23.96099085 27.89927103 -25 25 C-21.86184602 22.28026655 -18.70773691 20.3103294 -15.0625 18.375 C-10.12758282 15.49324301 -7.89778597 12.33482129 -5.25 7.34765625 C-3.79804853 4.6207099 -2.02004744 2.33082396 0 0 Z M0 2 C-0.29132812 2.56847656 -0.58265625 3.13695312 -0.8828125 3.72265625 C-6.51203597 14.32613064 -12.3333394 19.32147033 -23 25 C-22.3206758 28.14976023 -22.3206758 28.14976023 -19.7421875 29.2890625 C-18.79601562 29.72992187 -17.84984375 30.17078125 -16.875 30.625 C-8.52919024 34.98733636 -4.31928753 41.87973944 0 50 C3.11554205 49.34108897 3.11554205 49.34108897 4.10546875 46.9609375 C4.46253906 46.10757813 4.81960938 45.25421875 5.1875 44.375 C9.38034825 35.60130859 16.5259046 31.25666366 25 27 C25 26.34 25 25.68 25 25 C24.28714844 24.6596875 23.57429687 24.319375 22.83984375 23.96875 C12.47919331 18.72567522 7.15673689 12.26594625 2 2 C1.34 2 0.68 2 0 2 Z " fill="#1B1D1B" transform="translate(970,814)"/>
<path d="M0 0 C7.54784693 4.26617435 12.88369515 10.81246536 18 17.6875 C19.84435935 20.07647284 19.84435935 20.07647284 22.2734375 21.30859375 C25.47368813 23.29384952 28.00141718 25.70817131 30.625 28.375 C31.10195313 28.84421875 31.57890625 29.3134375 32.0703125 29.796875 C34.9141061 32.65646745 36.9895159 35.52240588 39 39 C39.721875 39.53625 40.44375 40.0725 41.1875 40.625 C41.785625 41.07875 42.38375 41.5325 43 42 C43 42.99 43 43.98 43 45 C39.08158173 43.69386058 36.67359191 42.16870152 34 39 C34 38.34 34 37.68 34 37 C33.14921875 36.91492188 33.14921875 36.91492188 32.28125 36.828125 C28.96905823 35.62575401 27.6502988 33.50414983 25.5 30.75 C24.7471875 29.79609375 23.994375 28.8421875 23.21875 27.859375 C21.77535763 25.9992285 20.33261432 24.13857811 18.890625 22.27734375 C17.01197507 19.85648899 17.01197507 19.85648899 14.25 17.8125 C13.5075 17.214375 12.765 16.61625 12 16 C12 15.34 12 14.68 12 14 C11.42765625 13.7525 10.8553125 13.505 10.265625 13.25 C7.64989389 11.80683801 5.85226544 10.11783778 3.75 8 C3.04359375 7.29875 2.3371875 6.5975 1.609375 5.875 C0 4 0 4 0 2 C-1.32 2.33 -2.64 2.66 -4 3 C-3 1 -3 1 0 0 Z " fill="#23D565" transform="translate(485,413)"/>
<path d="M0 0 C4.37925511 2.18962756 6.98243118 5.65945056 9 10 C8.45730469 9.65066406 7.91460937 9.30132812 7.35546875 8.94140625 C6.64003906 8.48636719 5.92460937 8.03132813 5.1875 7.5625 C4.47980469 7.11003906 3.77210938 6.65757812 3.04296875 6.19140625 C0.91865448 4.85913661 0.91865448 4.85913661 -2 4 C-2.09796875 4.59425781 -2.1959375 5.18851562 -2.296875 5.80078125 C-3.52906391 9.65479435 -6.72766364 11.79307548 -10 14 C-11.65919896 14.36871088 -13.3247643 14.71281674 -15 15 C-16.36020151 16.96758273 -16.36020151 16.96758273 -17 19 C-17.66 19 -18.32 19 -19 19 C-19 19.99 -19 20.98 -19 22 C-19.78375 22.2475 -20.5675 22.495 -21.375 22.75 C-24.32317108 24.15389099 -24.9024777 25.00675737 -26 28 C-26.99 28 -27.98 28 -29 28 C-29 28.99 -29 29.98 -29 31 C-29.66 31 -30.32 31 -31 31 C-31 31.99 -31 32.98 -31 34 C-32.98 34.495 -32.98 34.495 -35 35 C-34.44930631 31.14514415 -32.82327433 29.58800147 -30 27 C-28.824375 25.7934375 -28.824375 25.7934375 -27.625 24.5625 C-19.87804878 17 -19.87804878 17 -17 17 C-16.9175 16.278125 -16.835 15.55625 -16.75 14.8125 C-15.83672766 11.38772874 -14.45764212 9.52992571 -12 7 C-11.01 7 -10.02 7 -9 7 C-8.6596875 6.1028125 -8.6596875 6.1028125 -8.3125 5.1875 C-6.37476225 1.95793708 -3.87125258 0 0 0 Z " fill="#23D265" transform="translate(484,442)"/>
<path d="M0 0 C-1.69411629 3.76837575 -4.00423992 6.28071561 -6.85546875 9.21875 C-8.21162583 10.92848086 -8.21162583 10.92848086 -7.8203125 12.98828125 C-6.9608385 15.09603891 -5.99345647 16.82358071 -4.6875 18.6875 C-4.27886719 19.28949219 -3.87023437 19.89148438 -3.44921875 20.51171875 C-1.61763905 22.39266718 -0.61076337 22.76507262 2 23 C4.08258075 21.65392535 4.08258075 21.65392535 6.00390625 19.59765625 C6.74447266 18.87255859 7.48503906 18.14746094 8.24804688 17.40039062 C9.01181641 16.62888672 9.77558594 15.85738281 10.5625 15.0625 C12.07813898 13.54686102 13.59999624 12.03740697 15.12890625 10.53515625 C15.79994385 9.858479 16.47098145 9.18180176 17.16235352 8.48461914 C19 7 19 7 22 7 C20.60919892 8.58775549 19.21211596 10.17000939 17.8125 11.75 C16.64654297 13.07257812 16.64654297 13.07257812 15.45703125 14.421875 C13.11506721 16.87926175 10.64492838 18.8840573 8 21 C6.98343919 22.65661761 5.97934924 24.32111559 5 26 C4.34 26 3.68 26 3 26 C3 26.66 3 27.32 3 28 C-0.60571107 27.40716913 -2.54429438 25.97258223 -5.25 23.5625 C-5.95640625 22.94503906 -6.6628125 22.32757812 -7.390625 21.69140625 C-9 20 -9 20 -9 18 C-9.99 18 -10.98 18 -12 18 C-12.75 15.8125 -12.75 15.8125 -13 13 C-11.25 10.5 -11.25 10.5 -9 8 C-8.484375 7.13375 -7.96875 6.2675 -7.4375 5.375 C-4.18421053 0 -4.18421053 0 0 0 Z " fill="#1FD562" transform="translate(388,509)"/>
<path d="M0 0 C28.35303119 -0.12123056 56.66131742 0.05142485 85 1 C85 1.99 85 2.98 85 4 C84.01 3.505 84.01 3.505 83 3 C80.4377732 2.87773147 77.90091182 2.81434423 75.33740234 2.79467773 C74.15190544 2.77982834 74.15190544 2.77982834 72.94245911 2.76467896 C70.3236493 2.73302878 67.70482134 2.70829267 65.0859375 2.68359375 C63.27275108 2.66302726 61.45956948 2.64203087 59.64639282 2.62062073 C54.86901758 2.56536858 50.09159885 2.51597318 45.31414795 2.46777344 C40.44116332 2.41758134 35.56824202 2.36188333 30.6953125 2.30664062 C21.1302624 2.19902062 11.56515738 2.09758419 2 2 C1.93433838 2.61415771 1.86867676 3.22831543 1.80102539 3.86108398 C1.71328857 4.66876221 1.62555176 5.47644043 1.53515625 6.30859375 C1.44886963 7.10837646 1.36258301 7.90815918 1.27368164 8.73217773 C0.9773272 11.18787481 0.54478624 13.58737522 0 16 C-0.33 16 -0.66 16 -1 16 C-0.67 10.72 -0.34 5.44 0 0 Z " fill="#2AD76A" transform="translate(590,359)"/>
<path d="M0 0 C0.66 0 1.32 0 2 0 C2 11.22 2 22.44 2 34 C1.67 34 1.34 34 1 34 C1 32.35 1 30.7 1 29 C0.34 29 -0.32 29 -1 29 C-1.495 19.1 -1.495 19.1 -2 9 C-3.485 10.381875 -4.97 11.76375 -6.5 13.1875 C-10.77803848 17.05114159 -15.00939261 20.13502169 -20 23 C-18.19378179 18.25031508 -14.25413291 15.4588517 -10.51953125 12.2421875 C-7.00733185 9.13959945 -4.51398049 6.00207656 -2 2 C-1.34 1.34 -0.68 0.68 0 0 Z " fill="#09712E" transform="translate(651,405)"/>
<path d="M0 0 C3.78520613 0.54074373 5.59177555 2.07572746 8 5 C8 5.99 8 6.98 8 8 C8.556875 8.04125 9.11375 8.0825 9.6875 8.125 C12.61918893 9.2342877 13.83294752 11.0924198 15.7109375 13.5234375 C17.04352784 15.20776483 17.04352784 15.20776483 19.5625 16.5 C22.72603106 18.44678834 24.08922661 20.86087228 26 24 C27.12534105 25.35618499 27.12534105 25.35618499 30.0625 25.0625 C31.5165625 25.0315625 31.5165625 25.0315625 33 25 C33.495 26.485 33.495 26.485 34 28 C32.8125 29.5625 32.8125 29.5625 31 31 C27.78481679 30.80336896 26.33026844 30.30274607 23.9375 28.109375 C23.298125 27.33078125 22.65875 26.5521875 22 25.75 C20.96166016 24.52023437 20.96166016 24.52023437 19.90234375 23.265625 C19.27457031 22.51796875 18.64679687 21.7703125 18 21 C15.65701343 18.59693685 13.2697349 16.25610209 10.8359375 13.9453125 C6.31168681 9.56843154 2.77303237 5.66663137 0 0 Z " fill="#137736" transform="translate(518,441)"/>
<path d="M0 0 C1.051875 0.185625 1.051875 0.185625 2.125 0.375 C1.125 2.375 1.125 2.375 -0.73828125 3.2734375 C-3.18851502 4.53662931 -4.33866333 5.8632938 -6.0625 8 C-9.34188365 11.88720045 -12.90921716 15.20370534 -16.76171875 18.515625 C-20.97918333 22.22637018 -24.49568773 26.29043082 -27.99609375 30.66796875 C-30.25308549 32.7184997 -31.88632583 33.03153316 -34.875 33.375 C-32.31289421 28.40318133 -28.63527597 24.87051063 -24.6875 21 C-24.01275635 20.33170166 -23.3380127 19.66340332 -22.64282227 18.97485352 C-18.71536872 15.10798983 -14.73936402 11.34013963 -10.5078125 7.8046875 C-8.76923137 6.28238919 -7.24853196 4.63973084 -5.6875 2.9375 C-2.875 0.375 -2.875 0.375 0 0 Z " fill="#2BD66C" transform="translate(483.875,411.625)"/>
<path d="M0 0 C0.66 0.33 1.32 0.66 2 1 C-1.03894046 5.74074712 -3.93451322 10.07470242 -8 14 C-8.45375 14.86625 -8.9075 15.7325 -9.375 16.625 C-11.57621278 19.84215714 -13.20813262 20.27079473 -17 21 C-21.71796086 20.75168627 -25.3083258 20.04020228 -29 17 C-29.8125 14.3125 -29.8125 14.3125 -30 12 C-29.01 12.495 -29.01 12.495 -28 13 C-28 13.66 -28 14.32 -28 15 C-26.68 15 -25.36 15 -24 15 C-24 15.66 -24 16.32 -24 17 C-21.67990003 17.7543877 -21.67990003 17.7543877 -19 18 C-17.04739802 16.99698223 -17.04739802 16.99698223 -15.375 15.25 C-14.70210937 14.61449219 -14.02921875 13.97898437 -13.3359375 13.32421875 C-12.17964844 12.17373047 -12.17964844 12.17373047 -11 11 C-10.52594727 10.53287598 -10.05189453 10.06575195 -9.56347656 9.58447266 C-6.34858797 6.41592294 -3.16549123 3.21786149 0 0 Z " fill="#16CF59" transform="translate(567,482)"/>
<path d="M0 0 C0 0.33 0 0.66 0 1 C-6.93 1 -13.86 1 -21 1 C-21 10.24 -21 19.48 -21 29 C-25.05077129 20.89845742 -25.80852383 12.9888826 -25 4 C-21.61870113 -4.8388339 -7.65197512 -1.02026335 0 0 Z " fill="#156832" transform="translate(609,355)"/>
<path d="M0 0 C0.495 1.98 0.495 1.98 1 4 C-0.28627711 5.17260611 -1.57919783 6.3379283 -2.875 7.5 C-3.59429688 8.1496875 -4.31359375 8.799375 -5.0546875 9.46875 C-7 11 -7 11 -9 11 C-9.26683594 11.58007812 -9.53367187 12.16015625 -9.80859375 12.7578125 C-12.78424433 18.35788932 -17.09945342 22.62544035 -22.5 25.875 C-27.16017783 28.74586041 -29.63903949 32.31525947 -32.4921875 36.92578125 C-34 39 -34 39 -37 40 C-36.60077369 35.11169563 -34.2177581 32.67227087 -30.8125 29.4375 C-30.34263672 28.96892578 -29.87277344 28.50035156 -29.38867188 28.01757812 C-26.17137784 24.87928995 -22.73312217 22.47499812 -19 20 C-17.27861184 18.31834361 -17.27861184 18.31834361 -15.9375 16.5625 C-13.44982395 13.51913527 -10.78131458 10.78131458 -8 8 C-6.42241675 6.16796784 -4.86937503 4.31903038 -3.33203125 2.453125 C-2 1 -2 1 0 0 Z " fill="#16D25A" transform="translate(644,405)"/>
<path d="M0 0 C0.66 0 1.32 0 2 0 C3.15136852 4.60547409 3 7.93994143 3 13 C15.87 13.495 15.87 13.495 29 14 C25.08250819 15.95874591 23.6255689 16.25588493 19.4296875 16.265625 C17.83833984 16.26949219 17.83833984 16.26949219 16.21484375 16.2734375 C15.11269531 16.26570313 14.01054688 16.25796875 12.875 16.25 C11.76511719 16.25773437 10.65523437 16.26546875 9.51171875 16.2734375 C8.45339844 16.27085937 7.39507813 16.26828125 6.3046875 16.265625 C5.33515137 16.26336914 4.36561523 16.26111328 3.36669922 16.25878906 C1 16 1 16 -1 14 C-1.23046875 11.25 -1.23046875 11.25 -1.1875 8 C-1.18105469 6.9275 -1.17460938 5.855 -1.16796875 4.75 C-1 2 -1 2 0 0 Z " fill="#075020" transform="translate(650,434)"/>
<path d="M0 0 C0.33 0.66 0.66 1.32 1 2 C-0.66726076 3.90544087 -2.33532477 5.81007795 -4.0078125 7.7109375 C-5.26915228 9.16024163 -6.51598011 10.62241547 -7.7421875 12.1015625 C-11.23480388 16.27016915 -14.77815199 19.48705631 -19.21875 22.62109375 C-21.22938953 24.0646858 -21.22938953 24.0646858 -23.1875 26.75 C-25.25858073 29.32099677 -26.88195696 30.04726463 -30 31 C-30.33 30.34 -30.66 29.68 -31 29 C-30.071875 28.87625 -30.071875 28.87625 -29.125 28.75 C-26.85744274 28.22887891 -26.85744274 28.22887891 -26.140625 26.2421875 C-24.70921816 23.4283946 -22.86165953 21.59679801 -20.625 19.375 C-19.85414063 18.59898437 -19.08328125 17.82296875 -18.2890625 17.0234375 C-16.21329801 15.1885467 -14.45120598 14.2045626 -12 13 C-11.07932757 11.5861102 -10.16234557 10.16935466 -9.28125 8.73046875 C-6.73775719 5.29520255 -3.2883541 2.69772739 0 0 Z " fill="#13C858" transform="translate(610,414)"/>
<path d="M0 0 C0.66 0.33 1.32 0.66 2 1 C-0.5142261 8.62075987 -3.8714373 16.18290218 -11.21875 20.21875 C-11.8065625 20.4765625 -12.394375 20.734375 -13 21 C-13.9375 18.375 -13.9375 18.375 -14 15 C-12.48707558 13.2841223 -10.81244587 12.03052022 -8.98828125 10.65234375 C-5.70290342 7.92205923 -3.45981869 4.45860414 -1 1 C-0.67 0.67 -0.34 0.34 0 0 Z " fill="#27CE65" transform="translate(440,482)"/>
<path d="M0 0 C0.99 0 1.98 0 3 0 C2.74621215 3.72222184 2.5982071 5.46826035 -0.25 8 C-1.61125 8.99 -1.61125 8.99 -3 10 C-3.87993881 11.01998913 -4.73386496 12.0629105 -5.5625 13.125 C-8.90962099 17.0728863 -8.90962099 17.0728863 -12 18 C-12.99 17.67 -13.98 17.34 -15 17 C-14.62488281 16.56429688 -14.24976563 16.12859375 -13.86328125 15.6796875 C-13.35152344 15.08414062 -12.83976563 14.48859375 -12.3125 13.875 C-11.49265625 12.92367188 -11.49265625 12.92367188 -10.65625 11.953125 C-9.17197304 10.2027984 -7.74166661 8.4201727 -6.3125 6.625 C-4 4 -4 4 -1 3 C-0.67 2.01 -0.34 1.02 0 0 Z " fill="#27DB6E" transform="translate(634,384)"/>
<path d="M0 0 C1.02416016 -0.00386719 2.04832031 -0.00773437 3.10351562 -0.01171875 C9.13042942 -0.00401662 14.96126836 0.34143581 20.9375 1.125 C21.4325 4.095 21.4325 4.095 21.9375 7.125 C21.2775 7.455 20.6175 7.785 19.9375 8.125 C19.9375 7.135 19.9375 6.145 19.9375 5.125 C18.9475 5.125 17.9575 5.125 16.9375 5.125 C16.9375 4.135 16.9375 3.145 16.9375 2.125 C4.0675 2.125 -8.8025 2.125 -22.0625 2.125 C-22.0625 1.795 -22.0625 1.465 -22.0625 1.125 C-14.68876137 0.22867679 -7.42393624 -0.02813873 0 0 Z " fill="#14CA5A" transform="translate(617.0625,378.875)"/>
<path d="M0 0 C0 11.55 0 23.1 0 35 C-0.33 35 -0.66 35 -1 35 C-1.02505615 34.44650879 -1.0501123 33.89301758 -1.07592773 33.32275391 C-1.7058811 19.1368692 -1.7058811 19.1368692 -3 5 C-3.66 5 -4.32 5 -5 5 C-5 4.34 -5 3.68 -5 3 C-5.99 3.66 -6.98 4.32 -8 5 C-8.99 4.67 -9.98 4.34 -11 4 C-6.85299144 0.09693312 -6.17456556 0 0 0 Z " fill="#26DC6A" transform="translate(656,400)"/>
<path d="M0 0 C0 3.92322006 -1.49010039 6.13254486 -4 9 C-5.94439495 10.52655689 -7.95407236 11.93055642 -9.9765625 13.3515625 C-12.76106445 15.62001776 -14.61260628 18.2826613 -16.578125 21.265625 C-18.19613868 23.23924608 -19.66641936 24.02268845 -22 25 C-21.48817777 20.82082347 -19.23850155 18.89289972 -16.30859375 16.015625 C-15.61154076 15.32493927 -15.61154076 15.32493927 -14.90040588 14.62030029 C-13.41968181 13.15632189 -11.92885481 11.70313959 -10.4375 10.25 C-9.42965336 9.25720551 -8.42248367 8.2637233 -7.41601562 7.26953125 C-4.95180539 4.83833527 -2.47842671 2.41671132 0 0 Z " fill="#2AD36A" transform="translate(445,448)"/>
<path d="M0 0 C0.99 0.33 1.98 0.66 3 1 C2.27425781 1.72445313 1.54851562 2.44890625 0.80078125 3.1953125 C-0.93630042 4.93481687 -2.66895135 6.67877282 -4.39453125 8.4296875 C-8.78502319 12.86982959 -13.2270635 17.13875264 -17.97265625 21.1953125 C-21.81923304 24.61943288 -25.39755425 28.3225033 -29 32 C-29 29 -29 29 -27.74658203 27.37426758 C-27.17278809 26.80345459 -26.59899414 26.2326416 -26.0078125 25.64453125 C-25.38519531 25.02255859 -24.76257813 24.40058594 -24.12109375 23.75976562 C-23.13302734 22.79586914 -23.13302734 22.79586914 -22.125 21.8125 C-21.47402344 21.15830078 -20.82304687 20.50410156 -20.15234375 19.83007812 C-15.26686327 15 -15.26686327 15 -13 15 C-12.60941406 14.10087891 -12.60941406 14.10087891 -12.2109375 13.18359375 C-10.91715749 10.85061626 -9.70531236 9.70222219 -7.625 8.0625 C-4.65871694 5.6287855 -2.28379912 3.1059668 0 0 Z " fill="#34C168" transform="translate(481,409)"/>
<path d="M0 0 C5 5 5 5 7.3125 7.375 C8.199375 8.24125 9.08625 9.1075 10 10 C10.62132812 10.61746094 11.24265625 11.23492188 11.8828125 11.87109375 C16.04392393 15.91545064 16.04392393 15.91545064 21.5 17.4375 C22.325 17.293125 23.15 17.14875 24 17 C23.67 17.99 23.34 18.98 23 20 C17.83623656 20.46186154 15.57872264 19.48226887 11.625 16.1875 C10.75101562 15.47980469 9.87703125 14.77210938 8.9765625 14.04296875 C7 12 7 12 7 9 C6.01 9 5.02 9 4 9 C0 2.25 0 2.25 0 0 Z " fill="#0A5C27" transform="translate(369,522)"/>
<path d="M0 0 C0 4.02339699 -1.41144293 4.93460347 -4 8 C-4.9827265 9.35158549 -5.96167338 10.70592449 -6.9375 12.0625 C-9.31838048 15.2370073 -11.58720769 17.87853451 -15 20 C-15.99 19.67 -16.98 19.34 -18 19 C-12.36531717 12.2883812 -6.24063576 6.13907026 0 0 Z " fill="#38D975" transform="translate(467,425)"/>
<path d="M0 0 C-1.39775507 8.56124983 -7.37868064 12.0711255 -14 17 C-14.66723633 15.20214844 -14.66723633 15.20214844 -15 13 C-13.9519043 11.35253906 -13.9519043 11.35253906 -12.32421875 9.765625 C-11.45313477 8.90517578 -11.45313477 8.90517578 -10.56445312 8.02734375 C-9.94505859 7.44082031 -9.32566406 6.85429687 -8.6875 6.25 C-8.07970703 5.64800781 -7.47191406 5.04601562 -6.84570312 4.42578125 C-2.29447456 0 -2.29447456 0 0 0 Z " fill="#3CD874" transform="translate(409,484)"/>
<path d="M0 0 C0.33 0.99 0.66 1.98 1 3 C-3.31578375 10.99836371 -11.26350971 17.08206518 -18 23 C-18.66 22.34 -19.32 21.68 -20 21 C-13.92923209 13.60012906 -13.92923209 13.60012906 -10 11.0625 C-5.71678979 8.11779298 -3.02049654 4.18222598 0 0 Z " fill="#18CD5F" transform="translate(463,432)"/>
<path d="M0 0 C-0.49991307 4.28283732 -1.70166995 6.181543 -4.8125 9.125 C-5.49957031 9.78757812 -6.18664062 10.45015625 -6.89453125 11.1328125 C-10.94350962 14.72355769 -10.94350962 14.72355769 -13 16 C-13.99 15.67 -14.98 15.34 -16 15 C-15.29875 14.34 -14.5975 13.68 -13.875 13 C-11.02677335 10.17604801 -8.74202667 7.03805391 -6.4296875 3.76953125 C-4.57950884 1.47955603 -3.04774401 0 0 0 Z " fill="#1ACE5F" transform="translate(439,459)"/>
<path d="M0 0 C-0.89446573 4.88872928 -3.7690453 7.28412118 -7.1875 10.6875 C-7.75275391 11.28111328 -8.31800781 11.87472656 -8.90039062 12.48632812 C-12.4302483 16.03235926 -14.77823131 17.78605804 -20 18 C-20 17.34 -20 16.68 -20 16 C-18.35 15.67 -16.7 15.34 -15 15 C-14.938125 14.38125 -14.87625 13.7625 -14.8125 13.125 C-14.544375 12.42375 -14.27625 11.7225 -14 11 C-13.236875 10.71125 -12.47375 10.4225 -11.6875 10.125 C-8.03320482 8.59529504 -7.035441 6.32455363 -5 3 C-2.4 0 -2.4 0 0 0 Z " fill="#3FCF74" transform="translate(565,491)"/>
<path d="M0 0 C1 3 1 3 -0.125 6 C-2.15739526 9.25183242 -3.62219127 10.31109564 -7 12 C-7.99 12.66 -8.98 13.32 -10 14 C-10.99 13.67 -11.98 13.34 -13 13 C-8.71 8.71 -4.42 4.42 0 0 Z " fill="#20D560" transform="translate(604,446)"/>
<path d="M0 0 C0.33 0 0.66 0 1 0 C1.02721176 1.89575251 1.04649136 3.79161979 1.0625 5.6875 C1.07410156 6.74324219 1.08570313 7.79898437 1.09765625 8.88671875 C1.00865425 11.72410262 0.64939838 14.2438919 0 17 C1.65 17.33 3.3 17.66 5 18 C5 18.33 5 18.66 5 19 C2.125 19.125 2.125 19.125 -1 19 C-3 17 -3 17 -3.046875 14.609375 C-2.51572906 9.49360097 -1.95056519 4.81139414 0 0 Z " fill="#1BD15F" transform="translate(592,364)"/>
<path d="M0 0 C-0.58021778 3.2548802 -1.52647141 4.93652408 -3.875 7.25 C-4.38804687 7.77078125 -4.90109375 8.2915625 -5.4296875 8.828125 C-7 10 -7 10 -10 10 C-9.73727987 6.14677136 -9.42708562 4.43862847 -6.6875 1.625 C-4 0 -4 0 0 0 Z " fill="#3DD777" transform="translate(420,509)"/>
<path d="M0 0 C6.78376359 5.55035203 12.85522968 11.76442027 19 18 C18.01 18.33 17.02 18.66 16 19 C12.08488426 16.52729532 9.86170922 13.49476339 7.3359375 9.73828125 C5.93879008 7.92035552 4.49355363 6.65329519 2.6875 5.25 C1.800625 4.5075 0.91375 3.765 0 3 C0 2.01 0 1.02 0 0 Z " fill="#0D622B" transform="translate(488,453)"/>
<path d="M0 0 C0.99 0 1.98 0 3 0 C2.84992569 4.95245213 0.13930942 7.36965314 -3.11328125 10.7421875 C-5 12 -5 12 -7.23046875 11.6953125 C-7.81441406 11.46585938 -8.39835937 11.23640625 -9 11 C-8.67 10.34 -8.34 9.68 -8 9 C-7.34 9 -6.68 9 -6 9 C-6 8.34 -6 7.68 -6 7 C-5.02351983 5.97702078 -4.01868662 4.98095748 -3 4 C-2.505 3.278125 -2.01 2.55625 -1.5 1.8125 C-1.005 1.214375 -0.51 0.61625 0 0 Z " fill="#3DD574" transform="translate(397,528)"/>
<path d="M0 0 C-0.47409648 4.31730413 -3.03396703 6.33647461 -6.0625 9.25 C-6.98160156 10.14203125 -7.90070312 11.0340625 -8.84765625 11.953125 C-9.55792969 12.62859375 -10.26820313 13.3040625 -11 14 C-11.6484375 12.16015625 -11.6484375 12.16015625 -12 10 C-9.625 7.4375 -9.625 7.4375 -7 5 C-6.67 4.01 -6.34 3.02 -6 2 C-3.85412616 0.684787 -2.52986895 0 0 0 Z " fill="#3DD273" transform="translate(630,426)"/>
<path d="M0 0 C1.32 0.66 2.64 1.32 4 2 C3.04956626 3.33897583 2.08940853 4.67105427 1.125 6 C0.59132813 6.7425 0.05765625 7.485 -0.4921875 8.25 C-0.98976563 8.8275 -1.48734375 9.405 -2 10 C-2.66 10 -3.32 10 -4 10 C-4.33 10.66 -4.66 11.32 -5 12 C-5.3125 8.8125 -5.3125 8.8125 -5 5 C-2.5 2.0625 -2.5 2.0625 0 0 Z " fill="#127C3B" transform="translate(624,389)"/>
<path d="M0 0 C6.32532275 4.39497902 11.67248457 9.45050476 17 15 C16.34 15.66 15.68 16.32 15 17 C15 16.34 15 15.68 15 15 C14.4121875 14.91363281 13.824375 14.82726562 13.21875 14.73828125 C10.38805461 13.79637733 9.37491215 12.48426739 7.5 10.1875 C5.5783392 7.87737444 3.71851642 5.72573394 1.5625 3.625 C0 2 0 2 0 0 Z " fill="#19CD5D" transform="translate(528,459)"/>
<path d="M0 0 C3.21327714 -0.34327479 4.58875552 -0.30215345 7.23828125 1.64453125 C7.92277344 2.35996094 8.60726563 3.07539062 9.3125 3.8125 C10.00988281 4.52019531 10.70726562 5.22789062 11.42578125 5.95703125 C13 8 13 8 13 11 C10.06120516 9.64763423 7.70767089 8.10057341 5.25 6 C4.63640625 5.484375 4.0228125 4.96875 3.390625 4.4375 C2 3 2 3 2 1 C1.34 0.67 0.68 0.34 0 0 Z " fill="#31C266" transform="translate(376,529)"/>
<path d="M0 0 C0.66 0 1.32 0 2 0 C0.387672 4.03082 -2.46234596 6.75944137 -5.5 9.75 C-5.99886719 10.25660156 -6.49773438 10.76320313 -7.01171875 11.28515625 C-10.74658861 15 -10.74658861 15 -13 15 C-12.43056986 11.69730521 -11.59070637 10.12808023 -9 8 C-8.195625 7.54625 -7.39125 7.0925 -6.5625 6.625 C-3.67394366 4.79323257 -2.09400364 2.67165982 0 0 Z " fill="#0EC958" transform="translate(632,392)"/>
<path d="M0 0 C-1.5577308 3.82352106 -3.91595258 6.29205593 -7 9 C-7.99 9 -8.98 9 -10 9 C-10.33 9.99 -10.66 10.98 -11 12 C-11.66 12 -12.32 12 -13 12 C-11.53424802 8.62801098 -9.64818479 6.35012996 -7.0625 3.75 C-6.37285156 3.04359375 -5.68320312 2.3371875 -4.97265625 1.609375 C-3 0 -3 0 0 0 Z " fill="#1CD060" transform="translate(408,491)"/>
<path d="M0 0 C0.66 0.33 1.32 0.66 2 1 C0.59230365 2.79872312 -0.82651003 4.58874968 -2.25 6.375 C-3.03890625 7.37273437 -3.8278125 8.37046875 -4.640625 9.3984375 C-6.75596965 11.73092018 -8.10691236 12.89850333 -11 14 C-10.44928812 10.14501682 -8.78010179 8.62123883 -6 6 C-4.948125 4.6696875 -4.948125 4.6696875 -3.875 3.3125 C-2 1 -2 1 0 0 Z " fill="#3DD573" transform="translate(597,457)"/>
<path d="M0 0 C1 3 1 3 0.21484375 4.7890625 C-3.26613347 9.79230192 -3.26613347 9.79230192 -7.3125 10.9375 C-8.199375 10.958125 -9.08625 10.97875 -10 11 C-8.85455923 7.56367769 -7.7288492 6.66528415 -5 4.375 C-4.278125 3.76398438 -3.55625 3.15296875 -2.8125 2.5234375 C-2.214375 2.02070313 -1.61625 1.51796875 -1 1 C-0.67 0.67 -0.34 0.34 0 0 Z " fill="#3FDC77" transform="translate(601,419)"/>
<path d="M0 0 C4.24639773 0.48996897 7.09488747 3.06381675 10 6 C11.48692034 7.94303088 12.73071022 9.90078998 14 12 C13.67 12.66 13.34 13.32 13 14 C10.83031809 11.85714108 8.66416525 9.71091768 6.5 7.5625 C5.87996094 6.95083984 5.25992187 6.33917969 4.62109375 5.70898438 C4.03457031 5.12568359 3.44804687 4.54238281 2.84375 3.94140625 C2.02680664 3.13231812 2.02680664 3.13231812 1.19335938 2.30688477 C0 1 0 1 0 0 Z " fill="#0D652D" transform="translate(490,413)"/>
<path d="M0 0 C0.33 1.32 0.66 2.64 1 4 C-0.1196986 5.00593243 -1.2459412 6.0045849 -2.375 7 C-3.00148438 7.556875 -3.62796875 8.11375 -4.2734375 8.6875 C-6 10 -6 10 -8 10 C-6.5682479 4.98886765 -4.01554307 3.05530451 0 0 Z " fill="#12D057" transform="translate(449,472)"/>
<path d="M0 0 C0.99 0.33 1.98 0.66 3 1 C2 3 2 3 0.140625 3.8359375 C-2.59071323 5.32122727 -3.60559527 7.00890156 -5.25 9.625 C-6.03117188 10.85089844 -6.03117188 10.85089844 -6.828125 12.1015625 C-7.21484375 12.72804688 -7.6015625 13.35453125 -8 14 C-8.99 13.67 -9.98 13.34 -11 13 C-10.62488281 12.56429688 -10.24976563 12.12859375 -9.86328125 11.6796875 C-6.54140223 7.81392401 -3.25357073 3.92342352 0 0 Z " fill="#38D575" transform="translate(630,388)"/>
<path d="M0 0 C0 1.98 0 3.96 0 6 C-3.38023517 6 -5.83468937 5.12544378 -9 4 C-5.83923989 0.83923989 -4.57252889 0 0 0 Z " fill="#27C361" transform="translate(634,381)"/>
<path d="M0 0 C-0.33 1.32 -0.66 2.64 -1 4 C-3.31 4.33 -5.62 4.66 -8 5 C-8 4.34 -8 3.68 -8 3 C-8.99 2.67 -9.98 2.34 -11 2 C-7.39886852 0.79962284 -3.81102156 0 0 0 Z " fill="#0E5427" transform="translate(553,507)"/>
<path d="M0 0 C3.3 0.33 6.6 0.66 10 1 C9.67 2.32 9.34 3.64 9 5 C6.75 5.75 6.75 5.75 4 6 C1.6875 4.1875 1.6875 4.1875 0 2 C0 1.34 0 0.68 0 0 Z " fill="#27D867" transform="translate(541,501)"/>
<path d="M0 0 C3.78520613 0.54074373 5.59177555 2.07572746 8 5 C8 5.99 8 6.98 8 8 C6.25 7.9375 6.25 7.9375 4 7 C2.40498463 4.75835678 1.25456982 2.46433357 0 0 Z " fill="#146931" transform="translate(518,441)"/>
<path d="M0 0 C0.8125 1.6875 0.8125 1.6875 1 4 C-1.25 6.75 -1.25 6.75 -4 9 C-4.99 9 -5.98 9 -7 9 C-5.44499019 5.18315774 -2.96404505 2.80804268 0 0 Z " fill="#32DE71" transform="translate(574,447)"/>
<path d="M0 0 C-1.5830577 4.2742558 -4.50568404 6.26531794 -8 9 C-8.66 8.34 -9.32 7.68 -10 7 C-8.71372289 5.82739389 -7.42080217 4.6620717 -6.125 3.5 C-5.04605469 2.52546875 -5.04605469 2.52546875 -3.9453125 1.53125 C-2 0 -2 0 0 0 Z " fill="#2EE36F" transform="translate(624,429)"/>
<path d="M0 0 C1.32 0 2.64 0 4 0 C2.79618552 2.49361571 1.54571278 4.68143083 0 7 C-0.99 7 -1.98 7 -3 7 C-1.125 1.125 -1.125 1.125 0 0 Z " fill="#3ACF72" transform="translate(470,455)"/>
<path d="M0 0 C-0.33 1.65 -0.66 3.3 -1 5 C-1.598125 5.12375 -2.19625 5.2475 -2.8125 5.375 C-5.26231348 5.95475985 -5.26231348 5.95475985 -8 8 C-6.48291727 4.46014029 -4.24676932 0 0 0 Z " fill="#39D06F" transform="translate(605,415)"/>
<path d="M0 0 C0.33 0.99 0.66 1.98 1 3 C0.34 3.66 -0.32 4.32 -1 5 C-1.99 5 -2.98 5 -4 5 C-4.33 5.99 -4.66 6.98 -5 8 C-6.32 7.67 -7.64 7.34 -9 7 C-6.19195732 4.03595495 -3.81684226 1.55500981 0 0 Z " fill="#2ED66C" transform="translate(394,501)"/>
<path d="M0 0 C0.66 0.33 1.32 0.66 2 1 C-0.19471406 5.51135667 -2.41173718 7.06273348 -7 9 C-5.44499019 5.18315774 -2.96404505 2.80804268 0 0 Z " fill="#14C857" transform="translate(560,463)"/>
<path d="M0 0 C0.33 0.99 0.66 1.98 1 3 C-1.64 4.98 -4.28 6.96 -7 9 C-6.22130352 5.88521409 -5.58697102 3.70718587 -4 1 C-2 0 -2 0 0 0 Z " fill="#30D86C" transform="translate(610,444)"/>
<path d="M0 0 C0.33 0.99 0.66 1.98 1 3 C-0.3125 5.1875 -0.3125 5.1875 -2 7 C-2.66 7 -3.32 7 -4 7 C-4.33 7.66 -4.66 8.32 -5 9 C-5 6.16032769 -4.59732819 3.76264289 -4 1 C-2.68 0.67 -1.36 0.34 0 0 Z " fill="#29D66A" transform="translate(412,482)"/>
<path d="M0 0 C0.66 0.33 1.32 0.66 2 1 C-1.3 4.3 -4.6 7.6 -8 11 C-8 6.67750434 -5.85084926 5.11604454 -3 2 C-2.01 1.34 -1.02 0.68 0 0 Z " fill="#14CF56" transform="translate(589,460)"/>
<path d="M0 0 C0.886875 0.103125 1.77375 0.20625 2.6875 0.3125 C1.6875 2.25 1.6875 2.25 -0.3125 4.3125 C-3.01174572 4.97799451 -5.51881637 5.12930763 -8.3125 5.3125 C-4.12788462 0.38942308 -4.12788462 0.38942308 0 0 Z " fill="#17D25D" transform="translate(653.3125,399.6875)"/>
<path d="M0 0 C0.99 0 1.98 0 3 0 C2.75 2.875 2.75 2.875 2 6 C-0.0625 7.375 -0.0625 7.375 -2 8 C-1.47731534 5.23723823 -0.89130413 2.6739124 0 0 Z " fill="#22D367" transform="translate(634,384)"/>
<path d="M0 0 C0.66 0.33 1.32 0.66 2 1 C0.95125002 3.62187494 0.35068687 4.79371361 -2.125 6.25 C-2.74375 6.4975 -3.3625 6.745 -4 7 C-3.43628586 3.73045798 -2.50037734 2.17424117 0 0 Z " fill="#39DC75" transform="translate(427,466)"/>
<path d="M0 0 C0.33 0.99 0.66 1.98 1 3 C-0.40445835 5.2636564 -2.1967913 7.0208685 -4 9 C-5 6 -5 6 -4.0625 3.8125 C-3.5365625 2.9153125 -3.5365625 2.9153125 -3 2 C-2.01 2 -1.02 2 0 2 C0 1.34 0 0.68 0 0 Z " fill="#36DD73" transform="translate(379,514)"/>
<path d="M0 0 C-0.6875 1.9375 -0.6875 1.9375 -2 4 C-4.625 4.75 -4.625 4.75 -7 5 C-6 2 -6 2 -4.0625 0.8125 C-2 0 -2 0 0 0 Z " fill="#2AD968" transform="translate(558,497)"/>
<path d="M0 0 C0.99 0.33 1.98 0.66 3 1 C3 1.66 3 2.32 3 3 C0.6875 4.6875 0.6875 4.6875 -2 6 C-2.99 5.67 -3.98 5.34 -5 5 C-3.35 3.35 -1.7 1.7 0 0 Z " fill="#17D158" transform="translate(596,454)"/>
<path d="M0 0 C0.78375 0.04125 1.5675 0.0825 2.375 0.125 C1.09002463 2.69495074 -0.12412373 3.02934463 -2.6875 4.25 C-3.42097656 4.60320312 -4.15445312 4.95640625 -4.91015625 5.3203125 C-5.47605469 5.58585937 -6.04195313 5.85140625 -6.625 6.125 C-3.85227273 0.18344156 -3.85227273 0.18344156 0 0 Z " fill="#33DE73" transform="translate(483.625,411.875)"/>
</svg>
